<svg enable-background="new 0 0 32 32" height="512" viewBox="0 0 32 32" width="512" xmlns="http://www.w3.org/2000/svg"><g id="Layer_11"><path d="m14.761 28.414h-8.32c-1.509 0-2.736-1.228-2.736-2.737v-20.04c0-1.509 1.228-2.737 2.736-2.737h15.624c1.509 0 2.736 1.228 2.736 2.737v8.77c0 .497.403.9.9.9s.9-.403.9-.9v-8.77c0-2.502-2.035-4.537-4.537-4.537h-15.623c-2.502 0-4.537 2.035-4.537 4.537v20.04c0 2.501 2.035 4.537 4.537 4.537h8.319c.497 0 .9-.403.9-.9s-.402-.9-.899-.9z"/><path d="m21.086 6.566h-13.654c-.497 0-.9.403-.9.9s.403.9.9.9h13.654c.497 0 .9-.403.9-.9s-.403-.9-.9-.9z"/><path d="m21.986 12.928c0-.497-.403-.9-.9-.9h-13.654c-.497 0-.9.403-.9.9s.403.9.9.9h13.654c.497 0 .9-.403.9-.9z"/><path d="m15.518 18.382c0-.497-.403-.9-.9-.9h-7.193c-.497 0-.9.403-.9.9s.403.9.9.9h7.192c.497 0 .901-.403.901-.9z"/><path d="m7.425 22.943c-.497 0-.9.403-.9.9s.403.9.9.9h5.615c.497 0 .9-.403.9-.9s-.403-.9-.9-.9z"/><path d="m28.962 22.626-1.005-.269c-.117-.437-.289-.852-.515-1.244l.52-.901c.071-.124.051-.28-.05-.381l-1.112-1.112c-.101-.101-.257-.121-.381-.05l-.901.52c-.392-.226-.807-.398-1.244-.515l-.27-1.005c-.037-.138-.162-.234-.305-.234h-1.573c-.143 0-.268.096-.305.234l-.27 1.005c-.437.117-.852.289-1.244.515l-.901-.52c-.124-.071-.28-.051-.381.05l-1.112 1.112c-.101.101-.121.257-.05.381l.52.901c-.226.392-.398.807-.516 1.244l-1.005.269c-.138.037-.234.162-.234.305v1.573c0 .143.096.268.234.305l1.005.269c.117.437.289.853.515 1.244l-.52.901c-.071.124-.051.28.05.381l1.112 1.112c.101.101.257.122.381.05l.901-.52c.392.226.807.398 1.244.515l.269 1.005c.04.138.165.234.307.234h1.573c.143 0 .268-.096.305-.234l.269-1.005c.437-.117.852-.289 1.244-.515l.901.52c.124.071.28.051.381-.05l1.112-1.112c.101-.101.122-.257.05-.381l-.52-.901c.226-.392.398-.807.515-1.244l1.005-.269c.138-.037.234-.162.234-.305v-1.573c0-.143-.096-.268-.233-.305zm-2.605 1.091c0 .92-.358 1.785-1.01 2.436-1.301 1.302-3.569 1.301-4.87 0-.651-.65-1.01-1.516-1.01-2.436s.358-1.785 1.01-2.436c.65-.65 1.515-1.009 2.436-1.009.92 0 1.784.358 2.436 1.009.65.652 1.008 1.516 1.008 2.436z"/></g></svg>