<svg id="Layer_1" enable-background="new 0 0 512 512" height="512" viewBox="0 0 512 512" width="512" xmlns="http://www.w3.org/2000/svg"><path d="m506.771 277.922c-4.856-8.108-24.801-32.175-77.57-1.446l-93.448 54.43c-4.853 2.826-9.887 4.802-15.166 5.939 1.994-3.062 3.547-6.562 4.592-10.46 4.736-17.679-5.776-36.139-23.935-42.025-.343-.111-.692-.199-1.047-.263-26.882-4.849-53.402-14.437-74.712-22.14-7.397-2.675-14.385-5.201-20.323-7.126-23.828-7.732-45.381 1.852-63.32 12.246l-69.766 40.421-5.171-9.138c-2.854-5.045-7.517-8.68-13.128-10.235-5.613-1.556-11.48-.84-16.525 2.016l-26.22 14.839c-10.441 5.91-14.129 19.212-8.219 29.654l77.085 136.205c3.999 7.064 11.381 11.037 18.973 11.037 3.628 0 7.305-.908 10.681-2.818l26.22-14.839c5.045-2.855 8.68-7.518 10.235-13.129s.839-11.48-2.017-16.524l-9.631-17.017 16.204-9.355 119.807 32.102c6.733 1.805 13.343 2.706 19.81 2.706 12.893 0 25.216-3.581 36.813-10.722l169.589-104.425c15.33-9.443 20.188-33.241 10.189-49.933zm-376.184 168.891c-.414 1.493-1.372 2.728-2.697 3.478l-26.22 14.839c-2.761 1.564-6.284.589-7.849-2.175l-77.085-136.204c-.75-1.326-.936-2.877-.521-4.37s1.372-2.728 2.697-3.478l26.22-14.839c.863-.489 1.822-.738 2.799-.738.523 0 1.051.071 1.571.216 1.493.414 2.728 1.371 3.478 2.697h.001l77.085 136.204c.749 1.326.935 2.878.521 4.37zm357.605-132.586-169.588 104.424c-13.52 8.323-28.354 10.405-44.093 6.186l-123.008-32.959c-2.047-.548-4.233-.261-6.07.799l-18.956 10.943-46.52-82.198 69.906-40.501c15.638-9.059 32.562-16.646 50.362-10.871 5.687 1.844 12.236 4.212 19.82 6.954 21.726 7.855 48.73 17.617 76.735 22.735 9.927 3.457 15.477 13.047 12.942 22.506-3.087 11.521-12.181 13.703-20.049 13.209-15.323-2.983-29.099-6.89-43.536-10.985-6.206-1.76-12.622-3.58-19.37-5.388-4.266-1.141-8.653 1.389-9.798 5.657-1.144 4.268 1.39 8.655 5.657 9.798 6.635 1.778 12.994 3.582 19.145 5.326 13.736 3.896 26.889 7.627 41.451 10.621.717.324 1.494.546 2.316.648.669.083 1.333.152 1.99.207 3.036.581 6.139 1.129 9.325 1.639 17.312 2.769 32.669.073 46.949-8.244l93.449-54.429c27.057-15.759 47.912-17.313 55.792-4.159 5.441 9.08 2.992 23.253-4.851 28.082zm-436.849 13.675c.748 5.116-2.793 9.869-7.908 10.617-5.116.748-9.869-2.793-10.617-7.909s2.793-9.869 7.908-10.617c5.116-.747 9.869 2.793 10.617 7.909zm-12.524-116.271h111.377c9.546 0 17.312-7.766 17.312-17.311v-49.735c0-16.358-12.253-28.78-33.616-34.08-6.169-1.53-12.334-2.69-18.486-3.509 9.862-8.364 16.354-22.466 16.354-38.426 0-23.35-14.622-38.438-37.251-38.438s-37.25 15.088-37.25 38.438c0 15.923 6.462 29.996 16.286 38.367-6.201.825-12.368 2.012-18.486 3.585-21.321 5.483-33.55 17.898-33.55 34.063v49.735c-.001 9.546 7.764 17.311 17.31 17.311zm55.689-165.498c9.694 0 21.251 3.893 21.251 22.438 0 16.502-9.731 30.443-21.251 30.443-11.519 0-21.25-13.941-21.25-30.443 0-18.546 11.555-22.438 21.25-22.438zm-57 98.452c0-10.769 11.71-16.041 21.534-18.567 11.545-2.969 23.281-4.453 35.132-4.453 11.87 0 23.855 1.49 35.866 4.469 8.018 1.989 21.468 7.043 21.468 18.55v49.735c0 .71-.601 1.311-1.312 1.311h-12.226v-37.472c0-4.418-3.582-8-8-8s-8 3.582-8 8v37.472h-54.926v-37.472c0-4.418-3.582-8-8-8s-8 3.582-8 8v37.472h-12.225c-.711 0-1.312-.601-1.312-1.311v-49.734zm162.804 67.046h111.377c9.546 0 17.312-7.766 17.312-17.311v-49.735c0-16.359-12.253-28.78-33.617-34.08-6.169-1.53-12.334-2.689-18.486-3.509 9.862-8.364 16.353-22.466 16.353-38.426 0-23.35-14.621-38.438-37.25-38.438s-37.25 15.088-37.25 38.438c0 15.923 6.462 29.995 16.286 38.366-6.201.825-12.367 2.012-18.486 3.585-21.322 5.484-33.551 17.899-33.551 34.064v49.735c0 9.546 7.766 17.311 17.312 17.311zm55.688-165.498c9.694 0 21.25 3.893 21.25 22.438 0 16.502-9.731 30.443-21.25 30.443s-21.25-13.941-21.25-30.443c0-18.546 11.556-22.438 21.25-22.438zm-57 98.452c0-10.77 11.71-16.041 21.534-18.567 11.546-2.969 23.281-4.453 35.132-4.453 11.87 0 23.855 1.49 35.865 4.469 8.018 1.989 21.469 7.043 21.469 18.55v49.735c0 .71-.601 1.311-1.312 1.311h-12.226v-37.472c0-4.418-3.582-8-8-8s-8 3.582-8 8v37.472h-54.927v-37.472c0-4.418-3.582-8-8-8s-8 3.582-8 8v37.472h-12.225c-.711 0-1.312-.601-1.312-1.311v-49.734zm162.803 67.046h111.378c9.546 0 17.312-7.766 17.312-17.311v-49.735c0-16.358-12.253-28.78-33.617-34.08-6.169-1.53-12.334-2.69-18.486-3.509 9.862-8.364 16.353-22.466 16.353-38.426 0-23.35-14.621-38.438-37.25-38.438s-37.251 15.088-37.251 38.438c0 15.923 6.463 29.996 16.287 38.367-6.201.825-12.368 2.012-18.486 3.585-21.321 5.482-33.55 17.898-33.55 34.063v49.735c-.001 9.546 7.765 17.311 17.31 17.311zm55.689-165.498c9.694 0 21.25 3.893 21.25 22.438 0 16.502-9.731 30.443-21.25 30.443-11.52 0-21.251-13.941-21.251-30.443 0-18.546 11.557-22.438 21.251-22.438zm-57 98.452c0-10.77 11.71-16.041 21.534-18.567 11.545-2.969 23.281-4.453 35.132-4.453 11.87 0 23.854 1.49 35.865 4.469 8.018 1.989 21.469 7.044 21.469 18.55v49.735c0 .71-.601 1.311-1.312 1.311h-12.226v-37.472c0-4.418-3.582-8-8-8s-8 3.582-8 8v37.472h-54.927v-37.472c0-4.418-3.582-8-8-8s-8 3.582-8 8v37.472h-12.226c-.71 0-1.311-.601-1.311-1.311v-49.734z"/></svg>