<svg id="Capa_1" enable-background="new 0 0 512 512" height="512" viewBox="0 0 512 512" width="512" xmlns="http://www.w3.org/2000/svg"><g><path d="m478.605 110.101h-27.839c-.162-.084-.319-.175-.488-.252l-178.327-81.006c-4.698-2.724-10.145-4.292-15.954-4.292-5.82 0-11.277 1.574-15.98 4.306l-178.296 80.992c-.169.077-.326.167-.488.252h-27.838c-18.414 0-33.395 14.98-33.395 33.394v310.56c0 18.414 14.981 33.395 33.395 33.395h445.211c18.414 0 33.395-14.98 33.395-33.395v-310.56c-.001-18.414-14.982-33.394-33.396-33.394zm-210.692-53.633c0 6.57-5.346 11.916-11.917 11.916s-11.917-5.346-11.917-11.916c0-6.571 5.346-11.917 11.917-11.917s11.917 5.345 11.917 11.917zm-43.793 1.577c.825 16.869 14.807 30.339 31.876 30.339 17.071 0 31.053-13.472 31.877-30.342l114.603 52.059h-292.952zm267.88 396.01c0 7.386-6.009 13.395-13.395 13.395h-445.21c-7.386 0-13.395-6.009-13.395-13.395v-310.56c0-7.386 6.009-13.395 13.395-13.395h445.211c7.386 0 13.395 6.009 13.395 13.395v310.56z"/><path d="m462 150.101h-412c-5.523 0-10 4.478-10 10v277.349c0 5.522 4.477 10 10 10h78.793c5.523 0 10-4.478 10-10s-4.477-10-10-10h-68.793v-257.349h392v257.349h-235.208c-5.523 0-10 4.478-10 10s4.477 10 10 10h245.208c5.523 0 10-4.478 10-10v-277.349c0-5.523-4.477-10-10-10z"/><path d="m151.485 357.075h69.485c12.517 0 22.699-10.183 22.699-22.699v-69.485c0-12.517-10.183-22.699-22.699-22.699h-14.92v-14.922c0-12.517-10.183-22.7-22.7-22.7h-69.48c-12.517 0-22.7 10.184-22.7 22.7v69.49c0 12.517 10.183 22.7 22.7 22.7h14.916v14.916c0 12.517 10.183 22.699 22.699 22.699zm72.184-92.184v69.485c0 1.488-1.211 2.699-2.699 2.699h-69.485c-1.489 0-2.7-1.211-2.7-2.699l.004-69.486c0-1.465 1.231-2.698 2.695-2.698h69.485c1.489-.001 2.7 1.21 2.7 2.699zm-109.799 34.569c-1.489 0-2.7-1.211-2.7-2.7v-69.49c0-1.489 1.211-2.7 2.7-2.7h69.48c1.489 0 2.7 1.211 2.7 2.7v14.92h-34.56c-12.366 0-22.705 10.344-22.705 22.701v34.569z"/><path d="m299.867 272.014h99.105c12.517 0 22.7-10.183 22.7-22.699v-22.043c0-12.517-10.183-22.699-22.7-22.699h-99.105c-12.517 0-22.699 10.183-22.699 22.699v22.043c0 12.516 10.183 22.699 22.699 22.699zm-2.699-44.743c0-1.488 1.211-2.699 2.699-2.699h99.105c1.489 0 2.7 1.211 2.7 2.699v22.043c0 1.488-1.211 2.699-2.7 2.699h-99.105c-1.488 0-2.699-1.211-2.699-2.699z"/><path d="m277.168 375.411c0 12.517 10.183 22.699 22.699 22.699h99.105c12.517 0 22.7-10.183 22.7-22.699v-58.522c0-12.517-10.183-22.7-22.7-22.7h-99.105c-12.517 0-22.699 10.184-22.699 22.7zm20-58.522c0-1.489 1.211-2.7 2.699-2.7h99.105c1.489 0 2.7 1.211 2.7 2.7v58.522c0 1.488-1.211 2.699-2.7 2.699h-99.105c-1.488 0-2.699-1.211-2.699-2.699z"/><path d="m182.03 433.62c-1.634-3.926-5.724-6.461-9.971-6.145-4.173.311-7.777 3.284-8.895 7.31-2.401 8.65 7.455 15.884 14.995 11.096 4.057-2.576 5.69-7.827 3.871-12.261z"/></g></svg>