<svg enable-background="new 0 0 512 512" viewBox="0 0 512 512" xmlns="http://www.w3.org/2000/svg"><g id="_x32_5_White_Board"><g><path d="m466.637 123.576h-121.389l-60.244-70.842c1.089-3.144 1.711-6.505 1.711-10.015 0-16.933-13.776-30.709-30.709-30.709s-30.709 13.776-30.709 30.709c0 3.511.622 6.873 1.711 10.018l-60.244 70.84h-121.401c-21.137 0-38.333 17.195-38.333 38.333v299.749c0 21.137 17.195 38.333 38.333 38.333h421.274c21.137 0 38.333-17.195 38.333-38.333v-299.751c0-21.137-17.196-38.332-38.333-38.332zm-186.611-61.779 52.537 61.779h-12.352l-47.089-55.375c2.62-1.766 4.94-3.937 6.904-6.404zm27.499 61.779h-103.038l43.568-51.23c2.541.683 5.198 1.081 7.952 1.081 2.755 0 5.412-.399 7.954-1.082zm-51.519-101.902c11.604 0 21.044 9.441 21.044 21.045s-9.441 21.045-21.044 21.045c-11.604 0-21.044-9.441-21.044-21.045s9.441-21.045 21.044-21.045zm-24.018 40.124c1.964 2.467 4.284 4.638 6.905 6.404l-47.092 55.374h-12.351zm263.318 399.86c0 15.808-12.86 28.669-28.669 28.669h-421.274c-15.808 0-28.669-12.86-28.669-28.669v-299.75c0-15.808 12.86-28.669 28.669-28.669h421.274c15.808 0 28.669 12.86 28.669 28.669z"/><path d="m450.643 165.437h-389.274c-6.864 0-12.448 5.584-12.448 12.447v267.781c0 6.861 5.584 12.445 12.448 12.445h53.565 74.08 261.629c6.864 0 12.448-5.584 12.448-12.445v-267.782c0-6.862-5.583-12.446-12.448-12.446zm-252.57 273.951c0 4.993-4.063 9.057-9.059 9.057h-74.08c-4.996 0-9.059-4.065-9.059-9.057v-33.809c0-4.993 4.063-9.057 9.059-9.057h74.08c4.996 0 9.059 4.064 9.059 9.057zm255.354 6.276c0 1.532-1.249 2.781-2.784 2.781h-245.255c1.492-2.687 2.349-5.773 2.349-9.057v-33.809c0-10.322-8.4-18.721-18.723-18.721h-74.08c-10.323 0-18.723 8.4-18.723 18.721v33.809c0 3.285.857 6.37 2.349 9.057h-37.191c-1.535 0-2.784-1.249-2.784-2.781v-267.781c0-1.534 1.249-2.783 2.784-2.783h389.274c1.535 0 2.784 1.249 2.784 2.783z"/></g></g><g id="Layer_1"/></svg>