<?xml version="1.0" encoding="UTF-8"?>
<svg xmlns="http://www.w3.org/2000/svg" width="512" height="512" viewBox="0 0 512 512"><g><path d="M256,104a24,24,0,1,0,24,24A24.028,24.028,0,0,0,256,104Zm0,32a8,8,0,1,1,8-8A8.009,8.009,0,0,1,256,136Z"/><path d="M279.951,200.884l1.32-11.875,9.329,7.464a8,8,0,0,0,10.655-.59l22.628-22.628a8,8,0,0,0,.59-10.655l-7.464-9.329,11.875-1.32A8,8,0,0,0,336,144V112a8,8,0,0,0-7.116-7.951l-11.875-1.32,7.464-9.329a8,8,0,0,0-.59-10.655L301.255,60.117a8,8,0,0,0-10.655-.59l-9.329,7.464-1.32-11.875A8,8,0,0,0,272,48H240a8,8,0,0,0-7.951,7.116l-1.32,11.875L221.4,59.527a8,8,0,0,0-10.655.59L188.117,82.745a8,8,0,0,0-.59,10.655l7.464,9.329-11.875,1.32A8,8,0,0,0,176,112v32a8,8,0,0,0,7.116,7.951l11.875,1.32-7.464,9.329a8,8,0,0,0,.59,10.655l22.628,22.628a8,8,0,0,0,10.655.59l9.329-7.464,1.32,11.875A8,8,0,0,0,240,208h32A8,8,0,0,0,279.951,200.884ZM266.973,172.8,264.84,192H247.16l-2.133-19.2a8,8,0,0,0-12.949-5.364L217,179.506l-12.5-12.5,12.068-15.082a8,8,0,0,0-5.364-12.949L192,136.84V119.16l19.2-2.133a8,8,0,0,0,5.364-12.949L204.494,89l12.5-12.5,15.082,12.068A8,8,0,0,0,245.027,83.2L247.16,64h17.68l2.133,19.2a8,8,0,0,0,12.949,5.364L295,76.494l12.5,12.5-12.068,15.082a8,8,0,0,0,5.364,12.949L320,119.16v17.68l-19.2,2.133a8,8,0,0,0-5.364,12.949L307.506,167l-12.5,12.5-15.082-12.068a8,8,0,0,0-12.949,5.364Z"/><path d="M296,384H216a8,8,0,0,0,0,16h80a8,8,0,0,0,0-16Z"/><path d="M296,408H216a8,8,0,0,0,0,16h80a8,8,0,0,0,0-16Z"/><path d="M296,432H216a8,8,0,0,0,0,16h80a8,8,0,0,0,0-16Z"/><path d="M272,456H216a8,8,0,0,0,0,16h56a8,8,0,0,0,0-16Z"/><path d="M216,376h40a8,8,0,0,0,8-8V344a8,8,0,0,0-8-8H216a8,8,0,0,0-8,8v24A8,8,0,0,0,216,376Zm8-24h24v8H224Z"/><path d="M128,384H48a8,8,0,0,0,0,16h80a8,8,0,0,0,0-16Z"/><path d="M128,408H48a8,8,0,0,0,0,16h80a8,8,0,0,0,0-16Z"/><path d="M128,432H48a8,8,0,0,0,0,16h80a8,8,0,0,0,0-16Z"/><path d="M104,456H48a8,8,0,0,0,0,16h56a8,8,0,0,0,0-16Z"/><path d="M48,376H88a8,8,0,0,0,8-8V344a8,8,0,0,0-8-8H48a8,8,0,0,0-8,8v24A8,8,0,0,0,48,376Zm8-24H80v8H56Z"/><path d="M501.66,346.34l-32-32A8.008,8.008,0,0,0,464,312H424V280a8,8,0,0,0-8-8H264V247.73a120,120,0,1,0-16,0V272H96a8,8,0,0,0-8,8v32H16a8,8,0,0,0-8,8V496a8,8,0,0,0,8,8H160a8,8,0,0,0,8-8V352a8.008,8.008,0,0,0-2.34-5.66l-32-32A8.008,8.008,0,0,0,128,312H104V288H248v24H184a8,8,0,0,0-8,8V496a8,8,0,0,0,8,8H328a8,8,0,0,0,8-8V352a8.008,8.008,0,0,0-2.34-5.66l-32-32A8.008,8.008,0,0,0,296,312H264V288H408v24H352a8,8,0,0,0-8,8V496a8,8,0,0,0,8,8H496a8,8,0,0,0,8-8V352A8.008,8.008,0,0,0,501.66,346.34ZM128,331.31,148.69,352H128ZM112,328v32a8,8,0,0,0,8,8h32V488H24V328Zm184,3.31L316.69,352H296ZM280,328v32a8,8,0,0,0,8,8h32V488H192V328Zm-24-96A104,104,0,1,1,360,128,104.112,104.112,0,0,1,256,232Zm208,99.31L484.69,352H464ZM488,488H360V328h88v32a8,8,0,0,0,8,8h32Z"/><path d="M464,384H384a8,8,0,0,0,0,16h80a8,8,0,0,0,0-16Z"/><path d="M464,408H384a8,8,0,0,0,0,16h80a8,8,0,0,0,0-16Z"/><path d="M464,432H384a8,8,0,0,0,0,16h80a8,8,0,0,0,0-16Z"/><path d="M440,456H384a8,8,0,0,0,0,16h56a8,8,0,0,0,0-16Z"/><path d="M384,376h40a8,8,0,0,0,8-8V344a8,8,0,0,0-8-8H384a8,8,0,0,0-8,8v24A8,8,0,0,0,384,376Zm8-24h24v8H392Z"/></g></svg>
