<svg id="Capa_1" enable-background="new 0 0 510.105 510.105" height="512" viewBox="0 0 510.105 510.105" width="512" xmlns="http://www.w3.org/2000/svg"><g><path d="m368.925 332.132c-17.546-17.546-46.096-17.544-63.64 0l-21.213 21.213 116.673 116.672 21.213-21.213c17.585-17.584 17.591-46.052 0-63.64z"/><path d="m178.006 204.852c17.546-17.546 17.546-46.095 0-63.64l-53.032-53.032c-17.586-17.585-46.051-17.589-63.64 0l-21.213 21.213 116.672 116.672z"/><path d="m178.007 332.132c-28.73-28.729-40.93-60.615-38.308-80.734l-119.93-119.931c-21.266 29.503-25.553 71.582-11.887 120.389 30.42 108.644 141.712 219.968 250.399 250.4 40.68 11.391 86.272 12.709 120.394-11.883l-119.935-119.934c-20.119 2.621-52.004-9.578-80.733-38.307z"/><path d="m375.08 0c-74.439 0-135 60.561-135 135s60.561 134.999 135 134.999c74.44 0 135-60.56 135-134.999 0-74.439-60.56-135-135-135zm30.448 168.638-8.574-34.299-56.268 56.267-21.213-21.213 56.268-56.267-34.299-8.575 7.275-29.104 68.731 17.183 17.183 68.73z"/></g></svg>