<svg id="Capa_1" enable-background="new 0 0 512 512" height="512" viewBox="0 0 512 512" width="512" xmlns="http://www.w3.org/2000/svg"><g><path d="m361.429 30.122h-80.367v-20.122c0-5.523-4.477-10-10-10h-140.572c-5.522 0-10 4.477-10 10v20.122h-80.368c-22.123 0-40.122 17.999-40.122 40.123v401.633c0 22.123 17.999 40.122 40.122 40.122h321.307c22.123 0 40.122-17.999 40.122-40.122v-401.633c0-22.124-17.999-40.123-40.122-40.123zm-220.939-10.122h120.571v40.245h-120.571zm-10 60.245h140.571c5.523 0 10-4.478 10-10v-20.123h50.285v391.674h-261.142v-391.674h50.286v20.123c0 5.523 4.478 10 10 10zm251.061 391.633c0 11.096-9.026 20.122-20.122 20.122h-321.307c-11.096 0-20.122-9.026-20.122-20.122v-401.633c0-11.096 9.026-20.123 20.122-20.123h10.082v401.674c0 5.522 4.477 10 10 10h281.143c5.522 0 10-4.478 10-10v-401.674h10.082c11.096 0 20.122 9.027 20.122 20.123z"/><path d="m100.408 125.47v50.204c0 5.523 4.477 10 10 10h50.204c5.522 0 10-4.477 10-10v-50.204c0-5.522-4.478-10-10-10h-50.204c-5.522 0-10 4.477-10 10zm20 10h30.204v30.204h-30.204z"/><path d="m160.612 225.918h-50.204c-5.523 0-10 4.477-10 10v50.204c0 5.522 4.477 10 10 10h50.204c5.522 0 10-4.478 10-10v-50.204c0-5.523-4.477-10-10-10zm-10 50.204h-30.204v-30.204h30.204z"/><path d="m160.612 336.367h-50.204c-5.523 0-10 4.478-10 10v50.204c0 5.523 4.477 10 10 10h50.204c5.522 0 10-4.477 10-10v-50.204c0-5.522-4.477-10-10-10zm-10 50.204h-30.204v-30.204h30.204z"/><path d="m210.816 135.47h80.326c5.522 0 10-4.477 10-10 0-5.522-4.478-10-10-10h-80.326c-5.523 0-10 4.478-10 10s4.478 10 10 10z"/><path d="m210.816 185.674h80.326c5.522 0 10-4.477 10-10 0-5.522-4.478-10-10-10h-80.326c-5.523 0-10 4.478-10 10s4.478 10 10 10z"/><path d="m210.816 245.918h80.326c5.522 0 10-4.478 10-10 0-5.523-4.478-10-10-10h-80.326c-5.523 0-10 4.477-10 10 0 5.522 4.478 10 10 10z"/><path d="m210.816 296.122h80.326c5.522 0 10-4.478 10-10s-4.478-10-10-10h-80.326c-5.523 0-10 4.478-10 10 0 5.523 4.478 10 10 10z"/><path d="m210.816 356.367h80.326c5.522 0 10-4.478 10-10s-4.478-10-10-10h-80.326c-5.523 0-10 4.478-10 10 0 5.523 4.478 10 10 10z"/><path d="m210.816 406.571h80.326c5.522 0 10-4.477 10-10 0-5.522-4.478-10-10-10h-80.326c-5.523 0-10 4.478-10 10 0 5.523 4.478 10 10 10z"/><path d="m502 150.612h-70.286c-5.522 0-10 4.477-10 10v261.061c0 1.246.277 2.715.831 3.985.003.008.005.015.008.023l35.144 80.326c1.592 3.641 5.189 5.992 9.161 5.992 3.973 0 7.569-2.352 9.161-5.992.057-.129 35.213-80.492 35.151-80.349.549-1.26.831-2.726.831-3.985 0-7.341 0-259.504 0-261.061-.001-5.522-4.479-10-10.001-10zm-60.286 70.204h50.286v190.857h-50.286zm0-50.204h50.286v30.204h-50.286zm25.143 306.44-19.853-45.378h39.706z"/></g></svg>