<svg id="Layer_2" enable-background="new 0 0 512 512" viewBox="0 0 512 512" xmlns="http://www.w3.org/2000/svg"><g transform="translate(-2248)"><g id="Icons_00000054258666398248432340000016865267487989963944_"><path clip-rule="evenodd" d="m2329.667 357.976c-87.5 2.255-87.481 130.448.002 132.69 87.486-2.251 87.469-130.452-.002-132.69zm174.333 0c-87.5 2.255-87.481 130.448.002 132.69 87.497-2.255 87.48-130.448-.002-132.69zm174.333 0c-87.489 2.251-87.469 130.452.002 132.69 87.497-2.255 87.48-130.448-.002-132.69zm-348.666 9.578c74.857 1.926 74.84 111.618-.002 113.533-74.865-1.929-74.851-111.614.002-113.533zm348.666 0c74.868 1.93 74.852 111.615-.002 113.533-74.854-1.925-74.84-111.618.002-113.533zm-174.333 0c74.868 1.93 74.852 111.615-.002 113.533-74.865-1.929-74.851-111.614.002-113.533zm37.326 89.94c-11.911-34.918-62.75-34.907-74.652.001-.872 2.493.44 5.229 2.931 6.105 2.5.876 5.23-.437 6.111-2.93 9.025-26.467 47.551-26.455 56.569.001 2.088 5.886 11.091 2.749 9.041-3.177zm-183.374-23.247c-9.035 26.471-47.546 26.45-56.578-.001-2.078-5.892-11.103-2.74-9.032 3.177 11.91 34.913 62.737 34.91 74.643-.001 2.044-5.91-6.924-9.08-9.033-3.175zm295.113 18.001h50.544c6.247-.027 6.275-9.548 0-9.578h-50.544c-6.247.027-6.274 9.548 0 9.578zm-350.562-59.512c-18.731.485-18.729 27.925 0 28.408 18.735-.479 18.73-27.931 0-28.408zm348.675 0c-18.731.485-18.729 27.925 0 28.408 18.735-.479 18.73-27.931 0-28.408zm-120.024 0c-18.732.485-18.729 27.925 0 28.408 18.734-.479 18.729-27.931 0-28.408zm-54.308 0c-18.733.48-18.73 27.931 0 28.408 18.732-.485 18.727-27.925 0-28.408zm-120.024 0c-18.731.485-18.729 27.925 0 28.408 18.732-.485 18.727-27.925 0-28.408zm348.675 0c-18.733.479-18.73 27.931 0 28.408 18.732-.485 18.727-27.925 0-28.408zm-402.994 9.579c6.05.027 6.051 9.225 0 9.252-6.048-.032-6.046-9.222 0-9.252zm348.675 0c6.05.027 6.051 9.225 0 9.252-6.048-.032-6.046-9.222 0-9.252zm-120.024 0c6.05.027 6.05 9.225 0 9.252-6.049-.032-6.047-9.222 0-9.252zm-174.332 0c6.047.031 6.048 9.221 0 9.252-6.051-.028-6.05-9.226 0-9.252zm120.024 0c6.048.031 6.048 9.221 0 9.252-6.051-.028-6.05-9.226 0-9.252zm228.651 0c6.047.031 6.048 9.221 0 9.252-6.052-.028-6.05-9.226 0-9.252zm-223.987-168.767-133.903 64.205c-13.305-16.666-41.475-6.814-41.215 14.807 1.805 35.004 53.438 27.842 45.669-6.319l133.769-64.141c11.359 14.924 36.433 9.515 40.698-8.692l128.606 29.294c-1.502 31.853 45.482 33.69 46.473 1.832-.042-24.117-32.557-31.988-43.753-11.037l-130.915-29.818c-6.492-31.383-52.486-21.591-45.429 9.869zm-151.843 65.318c18.051.463 18.048 26.922 0 27.383-18.063-.466-18.059-26.919 0-27.383zm348.666-48.025c18.063.467 18.059 26.918 0 27.382-18.052-.463-18.048-26.921 0-27.382zm-327.574-163.015c0-2.646-2.146-4.789-4.789-4.789h-34.788c-2.644 0-4.789 2.144-4.789 4.789v182.084c0 2.645 2.146 4.789 4.789 4.789h34.788c2.644 0 4.789-2.145 4.789-4.789zm-9.579 4.789v172.506h-25.21v-172.506zm176.507 134.883c-.55-18.003-26.921-17.936-27.375.073.472 18.108 27.009 18.024 27.375-.073zm183.921-201.375c0-2.645-2.146-4.789-4.789-4.789h-34.788c-2.644 0-4.789 2.145-4.789 4.789v194.89c0 2.645 2.146 4.789 4.789 4.789h34.788c2.644 0 4.789-2.144 4.789-4.789zm-9.578 4.789v185.312h-25.21v-185.312zm-165.847 46.437c0-2.645-2.146-4.789-4.789-4.789h-34.788c-2.644 0-4.789 2.144-4.789 4.789v111.068c0 2.645 2.146 4.789 4.789 4.789h34.788c2.644 0 4.789-2.145 4.789-4.789zm-9.578 4.789v101.49h-25.209v-101.49z" fill-rule="evenodd"/></g></g></svg>