<svg id="Layer_1" enable-background="new 0 0 128 128" viewBox="0 0 128 128" xmlns="http://www.w3.org/2000/svg"><g><path d="m13.5 85.8v-15.6h15.5v5.1l8 3.7v-16.7h-31.5v31.5h15.6l-2.2-8z"/><path d="m118.5 74h-62.9c-2.2 0-4 1.8-4 4s1.8 4 4 4h62.9c2.2 0 4-1.8 4-4s-1.8-4-4-4z"/><path d="m13.4 36.1c1.1 1.1 2.7 1.8 4.3 1.8s3.1-.6 4.3-1.8l12.8-12.8c1.6-1.6 1.6-4.1 0-5.6-1.6-1.6-4.1-1.6-5.6 0l-11.5 11.4-4.3-4.3c-1.6-1.6-4.1-1.6-5.6 0-1.6 1.6-1.6 4.1 0 5.6z"/><path d="m55.6 31.2h62.9c2.2 0 4-1.8 4-4s-1.8-4-4-4h-62.9c-2.2 0-4 1.8-4 4s1.8 4 4 4z"/><path d="m52.2 89.5-27.9-13.1c-1.2-.5-2.4-.5-3.3.1-.8.8-1 2-.7 3.2l8.4 29.7c.2.7.6 1.2 1.2 1.6.8.5 1.7.5 2.4 0 .1-.1.2-.2.3-.4l2.5-5.2s0 0 0-.1l1.5-3.1v-.1-.1c.1-.1.2-.3.3-.5 1.9 2.3 3.8 4.5 5.8 6.8 1.3 1.5 3.3 1.9 4.9.9 2.2-1.3 2.7-4 1.1-6-1.9-2.3-3.8-4.5-5.8-6.9.3-.1.5-.2.6-.2h.1.1l3.3-1h.1l5.6-1.6c.2-.1.3-.2.4-.3.6-.5.8-1.4.4-2.3-.2-.6-.7-1.1-1.3-1.4z"/></g></svg>