<svg fill="none" height="16" viewBox="0 0 16 16" width="16" xmlns="http://www.w3.org/2000/svg"><path clip-rule="evenodd" d="m5.00714 5.19648c.88654-.45647 1.49286-1.38067 1.49286-2.44648 0-1.51878-1.23122-2.75-2.75-2.75s-2.75 1.23122-2.75 2.75c0 1.25878.84575 2.32002 2 2.64648v5.20702c-1.15425.3265-2 1.3877-2 2.6465 0 1.5188 1.23122 2.75 2.75 2.75s2.75-1.2312 2.75-2.75c0-1.2588-.84575-2.32-2-2.6465v-3.79284l2.68934 2.68934h2.41418c.32646 1.1543 1.38768 2 2.64648 2 1.5188 0 2.75-1.2312 2.75-2.75 0-1.51878-1.2312-2.75-2.75-2.75-1.2588 0-2.32002.84575-2.64648 2h-1.79286zm-.00714-2.44648c0 .69036-.55964 1.25-1.25 1.25s-1.25-.55964-1.25-1.25.55964-1.25 1.25-1.25 1.25.55964 1.25 1.25zm0 10.5c0 .6904-.55964 1.25-1.25 1.25s-1.25-.5596-1.25-1.25.55964-1.25 1.25-1.25 1.25.5596 1.25 1.25zm7.25-3.25c.6904 0 1.25-.55964 1.25-1.25s-.5596-1.25-1.25-1.25-1.25.55964-1.25 1.25.5596 1.25 1.25 1.25z" fill="rgb(0,0,0)" fill-rule="evenodd"/></svg>