<svg id="Layer_5" enable-background="new 0 0 64 64" height="512" viewBox="0 0 64 64" width="512" xmlns="http://www.w3.org/2000/svg"><g><circle cx="20" cy="6" r="1"/><path d="m23 5h14v2h-14z"/><path d="m31 13h10v2h-10z"/><path d="m39 17h2v2h-2z"/><path d="m31 17h6v2h-6z"/><path d="m31 21h10v2h-10z"/><path d="m31 25h10v2h-10z"/><path d="m63 62.767v-19.267l-4.176-3.132-1.286-3.215c-.456-1.139-1.126-2.155-1.993-3.021l-6.545-6.546v-21.586c0-2.757-2.243-5-5-5h-32c-2.757 0-5 2.243-5 5v23.418l-2.76 2.76c-2.09 2.09-3.24 4.868-3.24 7.822 0 .606.051 1.218.15 1.818l1.556 9.332c.216 1.297.573 2.572 1.061 3.791l1.233 3.085v4.974h14v-4.807l.69-1.725c.193-.483.357-.974.508-1.468h29.858zm-2-3.534-12.387-7.432 9.481-9.481 2.906 2.18zm-5.319-21.337 1.146 2.863-10.18 10.181-4.258-.608c-1.286-.184-2.493-.721-3.492-1.553l-2.031-1.692c-1.121-.934-2.453-1.569-3.865-1.875v-.212h-1.896-.149c-.528 0-.956-.428-.956-.954 0-.319.159-.616.425-.794l.373-.249c.984-.656 2.13-1.003 3.313-1.003 1.596 0 3.096.621 4.224 1.75l.958.957 1.414-1.414-.957-.957-13.422-13.422c-.211-.212-.328-.493-.328-.793 0-.618.503-1.121 1.121-1.121.3 0 .581.117.793.328l8 8 4.379 4.379 1.414-1.414-4.379-4.379c-.208-.209-.328-.498-.328-.793 0-.618.503-1.121 1.121-1.121.3 0 .581.117.793.328l4.379 4.379 1.414-1.414-4.379-4.379c-.211-.212-.328-.493-.328-.793 0-.618.503-1.121 1.121-1.121.3 0 .581.117.793.328l2 2 2.379 2.379 1.414-1.414-2.379-2.379c-.211-.212-.328-.493-.328-.793 0-.618.503-1.121 1.121-1.121.3 0 .581.117.793.328l7.218 7.218c.674.674 1.195 1.464 1.549 2.35zm-24.727 9.104h.046v2h-6v-2zm-10.72-8h4.766v-6h-6v2.819c-.588-.506-1.346-.819-2.17-.819-1.537 0-2.871 1.042-3.244 2.533l-.586 2.344v-28.877h30v16.644c-.54-.411-1.189-.644-1.879-.644-1.684 0-3.051 1.342-3.11 3.011-1.223.044-2.267.787-2.739 1.847l-5.944-5.944c-.102-.102-.216-.184-.328-.27v-12.644h-14v14h9.217c-.135.349-.217.725-.217 1.121 0 .304.057.596.14.879h-9.14v2h10.586l2 2h-.586v6h6v-.586l1.61 1.61c-.166-.01-.331-.024-.499-.024-1.348 0-2.651.356-3.824 1h-9.9zm.766-2v-2h2v2zm0-22h2v2h-2zm4 4v-4h2v10h-10v-10h2v4zm4 16h.586l1.414 1.414v.586h-2zm-20-29c0-1.654 1.346-3 3-3h32c1.654 0 3 1.346 3 3v20.14c-.283-.083-.575-.14-.879-.14-.396 0-.772.082-1.121.217v-17.217h-34v36.708c-.126.273-.247.55-.382.819-.145.292-.438.473-.764.473-.471 0-.854-.384-.854-.854zm8 55h-10v-2h10zm.833-5.274-.51 1.274h-10.579l-1.12-2.802c-.434-1.085-.752-2.221-.945-3.376l-1.556-9.332c-.081-.492-.123-.993-.123-1.49 0-2.42.942-4.695 2.654-6.407l1.346-1.346v13.899c0 1.574 1.28 2.854 2.854 2.854 1.088 0 2.066-.604 2.553-1.578 1.02-2.039 1.816-4.194 2.37-6.406l.75-2.998c.149-.599.685-1.018 1.303-1.018.698 0 1.287.545 1.34 1.241l.783 10.172c.031.416.047.834.047 1.252 0 2.085-.393 4.124-1.167 6.061zm2.856-2.726c.203-1.095.311-2.209.311-3.335 0-.469-.018-.938-.054-1.405l-.404-5.26h7.672c-.126.332-.214.68-.214 1.046 0 .336.068.653.172.954h-5.172v6h10v-3.711c.939.266 1.827.702 2.585 1.334l2.031 1.692c1.283 1.069 2.835 1.76 4.489 1.996l4.553.65.065.039z"/></g></svg>