<svg enable-background="new 0 0 512 512" height="512" viewBox="0 0 512 512" width="512" xmlns="http://www.w3.org/2000/svg"><g id="_x32_1_Chat"><g><path d="m471.984 124.21v-86.319c0-20.345-16.52-36.865-36.865-36.865h-358.238c-20.398 0-36.865 16.573-36.865 36.865v86.319c0 20.239 16.361 36.812 36.865 36.812h13.705c1.7 0 3.347.691 4.515 2.231l10.677 13.651h-28.897c-20.345 0-36.865 16.52-36.865 36.812v86.319c0 20.345 16.52 36.865 36.865 36.865h27.516l-9.296 11.9c-1.062 1.381-2.762 2.178-4.515 2.178h-13.705c-20.292 0-36.865 16.52-36.865 36.865v86.319c0 20.291 16.573 36.811 36.865 36.811h358.238c20.345 0 36.865-16.52 36.865-36.811v-86.319c0-20.345-16.52-36.865-36.865-36.865h-250.087c-1.753 0-3.453-.797-4.568-2.178l-9.243-11.899h263.897c20.345 0 36.865-16.52 36.865-36.865v-86.319c0-20.292-16.52-36.812-36.865-36.812h-13.652c-1.806 0-3.506-.797-4.568-2.231l-10.677-13.651h28.897c20.452-.001 36.866-16.521 36.866-36.813zm-299.86 231.07c3.028 3.984 7.862 6.322 12.908 6.322h250.087c14.501 0 26.241 11.792 26.241 26.241v86.319c0 14.448-11.74 26.188-26.241 26.188h-358.238c-14.448 0-26.241-11.739-26.241-26.188v-86.319c0-14.449 11.793-26.241 26.241-26.241h13.705c5.046 0 9.88-2.338 12.908-6.268l29.747-38.086c2.231-2.869 6.959-2.869 9.137 0zm245.094-63.105h-239.463c-2.975 0-5.312-2.338-5.312-5.312 0-2.922 2.337-5.312 5.312-5.312h239.463c2.922 0 5.312 2.39 5.312 5.312 0 2.974-2.391 5.312-5.312 5.312zm0-70.596c2.922 0 5.312 2.39 5.312 5.312s-2.39 5.312-5.312 5.312h-289.076c-2.922 0-5.312-2.39-5.312-5.312s2.39-5.312 5.312-5.312zm-247.378-44.674 10.677-13.705c1.116-1.434 2.815-2.178 4.515-2.178h157.181l-10.677 13.651c-1.116 1.434-2.762 2.231-4.568 2.231h-157.128zm228.095-26.507-10.73-13.811c-6.799-8.606-19.495-8.34-25.975.053l-10.73 13.758h-165.468c-4.834 0-9.721 2.178-12.908 6.268l-15.776 20.238h-37.078l-15.776-20.185c-3.187-4.143-8.074-6.322-12.908-6.322h-13.705c-14.714 0-26.241-11.899-26.241-26.188v-86.318c0-14.502 11.793-26.241 26.241-26.241h358.238c14.449 0 26.241 11.792 26.241 26.241v86.319c0 14.448-11.633 26.188-26.241 26.188z"/><path d="m417.215 47.806h-322.411c-2.936 0-5.312 2.378-5.312 5.312s2.376 5.312 5.312 5.312h322.41c2.936 0 5.312-2.378 5.312-5.312.001-2.934-2.375-5.312-5.311-5.312z"/><path d="m334.283 103.641h-239.479c-2.936 0-5.312 2.378-5.312 5.312s2.376 5.312 5.312 5.312h239.479c2.936 0 5.312-2.378 5.312-5.312s-2.376-5.312-5.312-5.312z"/><path d="m367.617 455.666h-239.483c-2.936 0-5.312 2.378-5.312 5.312s2.376 5.312 5.312 5.312h239.484c2.936 0 5.312-2.378 5.312-5.312s-2.376-5.312-5.313-5.312z"/><path d="m122.822 400.998c0 2.934 2.376 5.312 5.312 5.312h289.081c2.936 0 5.312-2.378 5.312-5.312s-2.376-5.312-5.312-5.312h-289.081c-2.936 0-5.312 2.379-5.312 5.312z"/></g></g></svg>