<svg id="Layer_1" enable-background="new 0 0 512 512" viewBox="0 0 512 512" xmlns="http://www.w3.org/2000/svg"><path d="m454.79 40.58h-21.58v-19.54c0-8.57-6.16-15.68-14.66-16.91-50.6-7.32-116.61-4.73-160.52 6.28-1.44.36-2.61.36-4.05 0-43.93-11.01-109.95-13.59-160.53-6.28-8.49 1.23-14.66 8.34-14.66 16.91v19.54h-21.61c-9.12 0-16.54 7.42-16.54 16.54v241.8c0 4.96 2.09 9.45 5.87 12.64 3.05 2.58 6.74 3.93 10.58 3.93.96 0 1.94-.09 2.92-.26l46.75-8.05c13.45-2.33 29.44-3.74 46.61-4.12 1.37 14.55 5.86 28.76 13.39 41.8 5.5 9.52 12.35 17.96 20.29 25.11l-12.7 21.97c-2.72-1.06-5.7-1.24-8.58-.46-3.57.96-6.54 3.25-8.35 6.42l-37.21 64.48c-4.42 7.62-5.59 16.54-3.3 25.1 2.29 8.55 7.75 15.7 15.39 20.12 5.18 2.99 10.85 4.4 16.45 4.4 11.45 0 22.61-5.93 28.75-16.53l37.19-64.46c1.88-3.19 2.38-6.92 1.42-10.51-.76-2.86-2.4-5.34-4.7-7.19l12.72-22.01c1.71.55 3.44 1.07 5.2 1.54 8.9 2.38 17.84 3.52 26.64 3.52 15.59 0 30.75-3.57 44.43-10.12l7.46 12.93c1.43 2.48 4.07 4 6.94 4h54.14c4.42 0 8.01-3.58 8.01-8.01s-3.58-8.01-8.01-8.01h-49.52l-5.16-8.93c19.58-13.41 34.66-33.58 41.26-58.23 1.51-5.65 2.52-11.32 3.05-16.95 17.19.38 33.2 1.79 46.67 4.12l46.72 8.05c.99.17 1.97.26 2.94.26 3.85 0 7.53-1.35 10.58-3.92 3.79-3.2 5.88-7.69 5.88-12.64v-241.79c0-9.12-7.43-16.54-16.57-16.54zm-38.53-20.6c.57.08.93.5.93 1.06v229.92c0 .4-.07.56-.38.83-.29.26-.44.3-.85.25-20.38-2.77-43.56-4.05-67.35-3.71-4.43-9.1-10.17-17.55-17.07-25.01 16.87-.82 34.18-.79 50.94.12 4.44.23 8.19-3.14 8.43-7.56s-3.14-8.19-7.56-8.43c-22.79-1.24-46.58-.9-69.02.95-9.39-6.46-20.02-11.46-31.64-14.58-6.18-1.66-12.43-2.73-18.67-3.23v-165.15c42.09-10.13 104.27-12.4 152.24-5.46zm-321.45 1.06c0-.56.37-.98.93-1.06 47.95-6.93 110.13-4.67 152.25 5.46v165.12c-15.15 1.17-29.97 5.72-43.51 13.54-2.34 1.35-4.61 2.78-6.81 4.29-22.45-1.85-46.24-2.19-69.01-.95-4.42.24-7.8 4.02-7.56 8.43.24 4.42 4.01 7.79 8.43 7.56 16.71-.91 33.98-.94 50.82-.13-6.89 7.43-12.63 15.84-17.06 25.02-23.75-.33-46.9.94-67.26 3.71-.4.05-.55.01-.88-.28-.25-.22-.34-.34-.34-.8zm9.23 270.36-46.77 8.06c-.12.02-.2.02-.2.02s-.08-.03-.23-.16c-.13-.11-.16-.17-.16-.17s-.02-.06-.02-.23v-241.8c0-.28.24-.52.52-.52h21.61v194.36c0 5.05 2.09 9.64 5.85 12.89 3.16 2.77 7.06 4.23 11.16 4.23.79 0 1.59-.05 2.39-.16 17.89-2.43 38.08-3.66 58.95-3.61-.23.78-.46 1.57-.67 2.36-1.81 6.75-2.92 13.57-3.35 20.39-18 .38-34.84 1.87-49.08 4.34zm59.6 196.06c-4.72 8.15-15.2 10.95-23.33 6.27-3.93-2.28-6.74-5.97-7.93-10.4-1.18-4.42-.58-9.02 1.69-12.94l36.11-62.57 3.08 1.78c.03.02.06.04.09.06.02.01.05.02.08.04l22.94 13.23c.06.04.11.08.17.11.05.03.1.04.14.07l3.05 1.76zm33.99-82.3-9.32-5.37 11.55-19.99c3 1.95 6.12 3.73 9.32 5.36zm142.42-89.29c-5.46 20.39-17.79 37.15-33.82 48.47l-7.26-12.57c7.86-5.76 14.69-13.2 19.87-22.17 19.97-34.64 8.05-79.09-26.57-99.09s-79.07-8.09-99.1 26.54c-20 34.63-8.1 79.1 26.55 99.13 11.39 6.57 23.84 9.69 36.14 9.69 10.08 0 20.04-2.1 29.24-6.11l7.27 12.59c-11.25 5.19-23.64 8.03-36.39 8.02-7.43 0-14.99-.96-22.5-2.97-22.45-6.01-41.21-20.41-52.84-40.54-11.62-20.13-14.71-43.59-8.68-66.04 6.01-22.45 20.41-41.22 40.54-52.84 13.34-7.7 28.13-11.65 43.12-11.69.13.01.26.02.39.02.1 0 .21-.01.31-.02 7.41.04 14.87 1.03 22.22 3 46.33 12.41 73.92 60.22 61.51 106.58zm-90.99-18.53 27.95 48.42c-15.55 6.22-33.7 5.53-49.3-3.46-26.99-15.61-36.27-50.26-20.69-77.25 10.47-18.11 29.51-28.25 49.06-28.25 9.58 0 19.29 2.44 28.16 7.56 26.99 15.59 36.28 50.23 20.71 77.22-3.72 6.44-8.54 11.86-14.06 16.19l-27.96-48.45c-2.21-3.83-7.11-5.14-10.94-2.93-3.82 2.22-5.14 7.12-2.93 10.95zm206.29 1.58c0 .16-.02.23-.02.23s-.03.06-.17.18c-.13.11-.21.15-.21.15-.02 0-.09 0-.24-.02l-46.73-8.05c-14.26-2.47-31.11-3.96-49.13-4.35-.48-7.78-1.85-15.4-4.03-22.75 20.89-.05 41.09 1.18 58.98 3.61 4.97.68 9.79-.76 13.56-4.06s5.85-7.88 5.85-12.89v-194.37h21.58c.3 0 .55.29.55.52v241.8zm-165.01-121.92c-.53-4.39 2.6-8.38 6.99-8.91 26.95-3.25 57.49-4.18 86.01-2.63 4.42.24 7.8 4.02 7.56 8.43-.24 4.42-3.99 7.8-8.43 7.56-27.61-1.51-57.17-.61-83.22 2.53-.33.04-.65.06-.97.06-3.99.01-7.45-2.98-7.94-7.04zm0-83.97c-.53-4.39 2.6-8.38 6.99-8.91 26.88-3.25 57.43-4.19 86-2.65 4.42.24 7.8 4.01 7.57 8.43-.24 4.42-4.04 7.8-8.42 7.57-27.68-1.48-57.24-.58-83.23 2.56-.33.04-.65.06-.97.06-3.99-.01-7.45-2.99-7.94-7.06zm0 41.99c-.53-4.39 2.6-8.38 6.99-8.91 26.95-3.25 57.49-4.19 86.01-2.63 4.42.24 7.8 4.02 7.56 8.43-.24 4.42-3.99 7.79-8.43 7.56-27.62-1.51-57.17-.61-83.22 2.53-.33.04-.65.06-.97.06-3.99.01-7.45-2.98-7.94-7.04zm0-83.97c-.53-4.39 2.6-8.38 6.99-8.91 27.05-3.27 57.6-4.21 86.01-2.65 4.42.24 7.8 4.02 7.56 8.43-.24 4.42-3.99 7.79-8.43 7.56-27.51-1.51-57.06-.6-83.22 2.56-.33.04-.65.06-.97.06-3.99 0-7.45-2.98-7.94-7.05zm-169.24 122.85c-.24-4.42 3.14-8.19 7.56-8.43 28.53-1.56 59.06-.63 85.98 2.63 4.39.53 7.52 4.52 6.99 8.91-.49 4.06-3.95 7.05-7.94 7.05-.32 0-.64-.02-.97-.06-26.02-3.15-55.57-4.05-83.19-2.53-4.39.22-8.19-3.16-8.43-7.57zm0-41.99c-.24-4.42 3.14-8.19 7.56-8.43 28.53-1.56 59.06-.63 85.98 2.63 4.39.53 7.52 4.52 6.99 8.91-.49 4.06-3.95 7.05-7.94 7.05-.32 0-.64-.02-.97-.06-26.02-3.14-55.57-4.04-83.19-2.53-4.39.22-8.19-3.15-8.43-7.57zm100.53-38.87c-.49 4.06-3.95 7.05-7.94 7.05-.32 0-.64-.02-.97-.06-25.96-3.14-55.51-4.05-83.2-2.56-4.4.25-8.19-3.15-8.42-7.57-.24-4.42 3.15-8.19 7.57-8.43 28.58-1.53 59.12-.59 85.98 2.65 4.38.54 7.51 4.53 6.98 8.92zm-100.53-45.12c-.24-4.42 3.14-8.19 7.56-8.43 28.42-1.56 58.96-.61 85.98 2.65 4.39.53 7.52 4.52 6.99 8.91-.49 4.06-3.95 7.05-7.94 7.05-.32 0-.64-.02-.97-.06-26.13-3.16-55.67-4.07-83.19-2.56-4.39.23-8.19-3.14-8.43-7.56zm350.26 380.23c0 4.42-3.58 8.01-8.01 8.01h-62.28c-4.42 0-8.01-3.58-8.01-8.01s3.58-8.01 8.01-8.01h62.28c4.43 0 8.01 3.59 8.01 8.01zm0-65.93c0 4.42-3.58 8.01-8.01 8.01h-62.28c-4.42 0-8.01-3.58-8.01-8.01s3.58-8.01 8.01-8.01h62.28c4.43 0 8.01 3.58 8.01 8.01zm0 32.96c0 4.42-3.58 8.01-8.01 8.01h-62.28c-4.42 0-8.01-3.58-8.01-8.01s3.58-8.01 8.01-8.01h62.28c4.43.01 8.01 3.59 8.01 8.01z"/></svg>