<svg id="Capa_1" enable-background="new 0 0 512.004 512.004" height="512" viewBox="0 0 512.004 512.004" width="512" xmlns="http://www.w3.org/2000/svg"><path d="m497.004 481.883h-15v-56.019c0-8.284-6.716-15-15-15h-152.004c-24.065 0-45.477 11.553-59 29.397-13.523-17.844-34.935-29.397-59-29.397h-152c-8.284 0-15 6.716-15 15v56.019h-15c-8.284 0-15 6.716-15 15s6.716 15 15 15h30 211 211.004 30c8.284 0 15-6.716 15-15 0-8.285-6.716-15-15-15zm-437.004 0v-41.019h137c23.261 0 42.363 18.141 43.9 41.019zm211.1 0c1.537-22.878 20.639-41.019 43.9-41.019h137.004v41.019z"/><path d="m180.821 264.958v64.37c0 30.582 23.435 54.538 53.352 54.538h43.053c30.02 0 54.442-24.465 54.442-54.538v-64.411c42.287-27.484 68.214-72.955 68.214-120.602 0-79.508-64.544-144.193-143.879-144.193s-143.88 64.684-143.88 144.192c0 47.74 26.11 93.224 68.698 120.644zm120.846 6.552v30.505h-90.846v-30.505zm-24.442 82.355h-43.053c-12.228 0-21.979-9.401-23.216-21.85h90.561c-1.338 12.27-11.72 21.85-24.292 21.85zm-21.223-323.744c62.793 0 113.879 51.227 113.879 114.193 0 19.977-5.957 39.941-17.229 57.731-10.072 15.899-23.886 29.477-40.105 39.464h-41.545v-46.541h10c8.284 0 15-6.716 15-15s-6.716-15-15-15h-50c-8.284 0-15 6.716-15 15s6.716 15 15 15h10v46.541h-41.097c-35.738-21.722-57.782-58.633-57.782-97.196 0-62.965 51.086-114.192 113.879-114.192z"/></svg>