<svg viewBox="0 0 24 24" xmlns="http://www.w3.org/2000/svg"><g id="Megaphone" fill="rgb(0,0,0)"><path d="m19 1a1 1 0 0 0 -1 1v1.074l-12.07666.929a1.00007 1.00007 0 0 0 -.92334.997v8a1.00007 1.00007 0 0 0 .92334.99707l12.07666.92893v1.074a1 1 0 0 0 2 0v-14a1 1 0 0 0 -1-1z"/><path d="m22 4.00049a1 1 0 0 0 -1 1v7.99951a1 1 0 0 0 2 0v-7.99951a1 1 0 0 0 -1-1z"/><path d="m1 9a3.00883 3.00883 0 0 0 3 3v-6a3.00879 3.00879 0 0 0 -3 3z"/><path d="m13.74 15.6-6.14-.48 1.1 5.5a2.96234 2.96234 0 1 0 5.81-1.16z"/></g></svg>