<svg height="512" viewBox="0 0 64 64" width="512" xmlns="http://www.w3.org/2000/svg"><g id="Layer_15" data-name="Layer 15"><path d="m43 58a1 1 0 0 1 -1 1h-36a1 1 0 0 1 -1-1v-38a1 1 0 0 1 1-1h36a1 1 0 0 1 1 1v16.586l2-2v-31.586h-42v58h42v-15.586l-2 2zm-6-53h6v2h-2v10h-2v-10h-2zm-7 1a1 1 0 0 1 1-1h4a1 1 0 0 1 1 1v5a1 1 0 0 1 -1 1h-3v5h-2zm-3-1h2v12h-2zm-8 1a1 1 0 0 1 1-1h3a3 3 0 0 1 3 3v1a3 3 0 0 1 -1.316 2.481 7.77 7.77 0 0 1 1.316 4.348v1.171h-2v-1.171a5.786 5.786 0 0 0 -1.441-3.829h-1.559v5h-2zm-7 0a1 1 0 0 1 1-1h4a1 1 0 0 1 1 1v4h-2v-3h-2v8h2v-3h2v4a1 1 0 0 1 -1 1h-4a1 1 0 0 1 -1-1zm-7 7h2v2h2v-3h-3a1 1 0 0 1 -1-1v-5a1 1 0 0 1 1-1h4a1 1 0 0 1 1 1v3h-2v-2h-2v3h3a1 1 0 0 1 1 1v5a1 1 0 0 1 -1 1h-4a1 1 0 0 1 -1-1z"/><path d="m24 9v-1a1 1 0 0 0 -1-1h-2v3h2a1 1 0 0 0 1-1z"/><path d="m38.586 41 2.414-2.414v-17.586h-34v36h34v-7.586l-2.293 2.293a1 1 0 0 1 -.313.212l-7 3a.989.989 0 0 1 -.394.081 1 1 0 0 1 -.919-1.394l3-7a1 1 0 0 1 .212-.313l3.293-3.293h-27.586v-2zm-5.586-16h6v2h-6zm-20 0h18v2h-18zm-4 4h30v2h-30zm0 4h30v2h-30zm0 4h30v2h-30z"/><path d="m32 7h2v3h-2z"/><path d="m33.479 38.672h22.042v3.657h-22.042z" transform="matrix(.707 -.707 .707 .707 -15.604 43.328)"/><path d="m53.379 28.672h2.243v3.657h-2.243z" transform="matrix(.707 -.707 .707 .707 -5.604 47.471)"/><path d="m36.248 50.662-1.911-1.911-1.433 3.345z"/><path d="m59.171 24a1.816 1.816 0 0 0 -1.293.536l-2.464 2.464 2.586 2.586 2.464-2.464a1.829 1.829 0 0 0 -1.293-3.122z"/></g></svg>