<svg viewBox="0 0 512 512" xmlns="http://www.w3.org/2000/svg"><g id="Layer_2" data-name="Layer 2"><g id="internet"><path d="m224.23 348.88c9.28 20.19 21.15 32.24 31.77 32.24s22.49-12.05 31.77-32.24a170.78 170.78 0 0 0 10.33-30.2h-84.2a170.78 170.78 0 0 0 10.33 30.2z"/><path d="m147.75 193.32h34.91a208.18 208.18 0 0 1 13.89-42.92c.94-2.06 1.91-4.05 2.91-6a126 126 0 0 0 -51.71 48.92z"/><path d="m182.66 318.68h-34.91a126 126 0 0 0 51.71 48.91q-1.5-2.91-2.91-6a208.47 208.47 0 0 1 -13.89-42.91z"/><path d="m176.26 256a314.69 314.69 0 0 1 1.63-32.21h-42.8a125.32 125.32 0 0 0 0 64.42h42.8a314.69 314.69 0 0 1 -1.63-32.21z"/><path d="m287.77 163.12c-9.28-20.19-21.15-32.24-31.77-32.24s-22.49 12.05-31.77 32.24a170.78 170.78 0 0 0 -10.33 30.2h84.2a170.78 170.78 0 0 0 -10.33-30.2z"/><path d="m329.34 193.32h34.91a126 126 0 0 0 -51.71-48.91c1 1.94 2 3.93 2.91 6a208.18 208.18 0 0 1 13.89 42.91z"/><path d="m208.51 223.79a292.32 292.32 0 0 0 0 64.42h95a292.32 292.32 0 0 0 0-64.42z"/><path d="m256 0c-141.38 0-256 114.62-256 256s114.62 256 256 256 256-114.62 256-256-114.62-256-256-256zm110 366a155.6 155.6 0 1 1 45.57-110 154.61 154.61 0 0 1 -45.57 110z"/><path d="m335.74 256a317.57 317.57 0 0 1 -1.63 32.21h42.8a125.32 125.32 0 0 0 0-64.42h-42.8a317.57 317.57 0 0 1 1.63 32.21z"/><path d="m315.45 361.6c-.94 2.06-1.91 4-2.91 6a126 126 0 0 0 51.71-48.91h-34.91a208.37 208.37 0 0 1 -13.89 42.91z"/></g></g></svg>