<svg id="Layer_1" height="512" viewBox="0 0 100 100" width="512" xmlns="http://www.w3.org/2000/svg"><g><g><path d="m30.25 82.75c-2.209 0-4-1.791-4-4v-27.054c0-2.209 1.791-4 4-4s4 1.791 4 4v27.054c0 2.209-1.791 4-4 4z"/></g><g><path d="m47.25 82.75c-2.209 0-4-1.791-4-4v-38.5c0-2.209 1.791-4 4-4s4 1.791 4 4v38.5c0 2.209-1.791 4-4 4z"/></g><g><path d="m64.25 82.75c-2.209 0-4-1.791-4-4v-27.054c0-2.209 1.791-4 4-4s4 1.791 4 4v27.054c0 2.209-1.791 4-4 4z"/></g><g><path d="m81.25 82.75c-2.209 0-4-1.791-4-4v-38.5c0-2.209 1.791-4 4-4s4 1.791 4 4v38.5c0 2.209-1.791 4-4 4z"/></g><g><path d="m30.25 39.091c-1.024 0-2.047-.391-2.829-1.171-1.562-1.563-1.562-4.095 0-5.657l17.186-17.186c1.563-1.562 4.095-1.562 5.657 0l13.932 13.933 22.606-26.61c1.43-1.683 3.956-1.888 5.638-.458 1.684 1.43 1.889 3.955.458 5.638l-25.414 29.915c-.723.852-1.77 1.361-2.886 1.407-1.121.051-2.201-.378-2.991-1.168l-14.171-14.172-14.357 14.357c-.782.781-1.805 1.172-2.829 1.172z"/></g><g><path d="m95 99h-80c-7.72 0-14-6.28-14-14v-80c0-2.209 1.791-4 4-4s4 1.791 4 4v80c0 3.309 2.691 6 6 6h80c2.209 0 4 1.791 4 4s-1.791 4-4 4z"/></g></g></svg>