<svg height="480pt" viewBox="0 -32 480.00135 480" width="480pt" xmlns="http://www.w3.org/2000/svg"><path d="m448 0h-416c-17.671875 0-32 14.328125-32 32v272c0 17.671875 14.328125 32 32 32h157.246094l-19.199219 64h-18.046875v16h176v-16h-18.046875l-7.890625-26.304688-15.328125 4.609376 6.511719 21.695312h-106.492188l20.910156-69.703125c.726563-2.421875.261719-5.042969-1.246093-7.074219-1.511719-2.027344-3.890625-3.222656-6.417969-3.222656h-168c-8.835938 0-16-7.164062-16-16v-16h160v-16h-160v-240c0-8.835938 7.164062-16 16-16h416c8.835938 0 16 7.164062 16 16v240h-40v16h40v16c0 4.554688-1.941406 8.894531-5.335938 11.929688l10.671876 11.917968c6.78125-6.074218 10.65625-14.742187 10.664062-23.847656v-272c0-17.671875-14.328125-32-32-32zm0 0"/><path d="m432 240h16v16h-16zm0 0"/><path d="m32 256h136c4.417969 0 8-3.582031 8-8v-80c0-4.417969-3.582031-8-8-8h-32c-4.417969 0-8 3.582031-8 8v72h-16v-56c0-4.417969-3.582031-8-8-8h-32c-4.417969 0-8 3.582031-8 8v56h-32zm112-80h16v64h-16zm-64 16h16v48h-16zm0 0"/><path d="m240 144v-24c0-4.417969-3.582031-8-8-8h-32c-4.417969 0-8 3.582031-8 8v56h16v-48h16v16zm0 0"/><path d="m304 120v-48c0-4.417969-3.582031-8-8-8h-32c-4.417969 0-8 3.582031-8 8v56h16v-48h16v40zm0 0"/><path d="m368 136v-32c0-4.417969-3.582031-8-8-8h-32c-4.417969 0-8 3.582031-8 8v24h16v-16h16v24zm0 0"/><path d="m424 48h-32c-4.417969 0-8 3.582031-8 8v96h16v-88h16v136h16v-144c0-4.417969-3.582031-8-8-8zm0 0"/><path d="m40 32h16v16h-16zm0 0"/><path d="m72 32h16v16h-16zm0 0"/><path d="m104 32h16v16h-16zm0 0"/><path d="m401.777344 302.464844c27.921875-49.929688 13.890625-112.871094-32.601563-146.207032-46.492187-33.339843-110.609375-26.4375-148.9375 16.03125-38.332031 42.46875-38.652343 106.953126-.738281 149.796876 37.910156 42.84375 101.953125 50.375 148.773438 17.5l69.101562 69.101562c9.753906 9.753906 25.5625 9.753906 35.3125 0 9.75-9.75 9.75-25.558594 0-35.3125zm-193.777344-54.464844c0-53.019531 42.980469-96 96-96s96 42.980469 96 96-42.980469 96-96 96c-52.996094-.058594-95.941406-43.003906-96-96zm247.03125 152c-2.378906.003906-4.664062-.9375-6.34375-2.625l-68-68c4.359375-4.117188 8.386719-8.578125 12.039062-13.335938l68.632813 68.632813c2.578125 2.5625 3.355469 6.425781 1.96875 9.78125-1.386719 3.359375-4.664063 5.550781-8.296875 5.546875zm0 0"/><path d="m304 168c-44.183594 0-80 35.816406-80 80s35.816406 80 80 80 80-35.816406 80-80c-.046875-44.160156-35.835938-79.949219-80-80zm0 144c-35.347656 0-64-28.652344-64-64 0-35.34375 28.652344-64 64-64s64 28.65625 64 64c-.039062 35.332031-28.671875 63.960938-64 64zm0 0"/><path d="m256 248h16c0-17.671875 14.328125-32 32-32v-16c-26.5.027344-47.972656 21.503906-48 48zm0 0"/></svg>