<svg id="Layer_1" enable-background="new 0 0 512 512" height="512" viewBox="0 0 512 512" width="512" xmlns="http://www.w3.org/2000/svg"><path clip-rule="evenodd" d="m38.941 443.625h286.659c3.845 8.349 8.832 16.063 14.763 22.941h-324.363v-382.412h22.941zm375.401-122.466c-45.098 0-81.658 36.56-81.658 81.658s36.56 81.658 81.658 81.658c45.099 0 81.658-36.56 81.658-81.658 0-45.099-36.56-81.658-81.658-81.658zm-10.725 88.861 39.706-40.102c4.7-4.747 12.368-4.76 17.101-.053 4.732 4.706 4.747 12.352.052 17.09-16.101 16.25-32.093 32.608-48.269 48.784-4.729 4.729-12.4 4.729-17.129 0l-26.836-26.837c-4.729-4.729-4.729-12.4 0-17.129s12.4-4.729 17.129 0zm-323.716-137.151c50.351-17.535 102.099-39.594 153.579-67.592 46.331-25.197 92.391-55.171 136.952-90.937l-3.56 17.647c-.863 4.315 1.936 8.512 6.25 9.375 4.315.863 8.512-1.936 9.375-6.25l7.949-39.409c1.141-4.962-2.613-9.763-7.766-9.763l-40.439-.009c-4.401 0-7.969 3.568-7.969 7.969s3.568 7.969 7.969 7.969l18.207.004c-43.856 35.208-89.118 64.673-134.595 89.405-50.622 27.531-101.578 49.247-151.204 66.529-4.159 1.45-6.356 5.997-4.906 10.156 1.452 4.159 5.999 6.356 10.158 4.906zm233.689-63.459h-36.491c-3.855 0-7 3.144-7 7v186.61c0 3.855 3.144 7 7 7h36.491c1.195 0 2.32-.302 3.306-.833-.136-2.106-.212-4.229-.212-6.37 0-9.517 1.367-18.714 3.906-27.412v-158.995c0-3.855-3.145-7-7-7zm57.26-47.672h36.492c3.855 0 7 3.144 7 7v136.421c-18.479 0-35.759 5.134-50.491 14.051v-150.472c-.001-3.856 3.144-7 6.999-7zm-151.014 100.667c-12.164 0-24.327 0-36.492 0-3.855 0-7 3.145-7 7v133.616c0 3.855 3.145 7 7 7h36.492c3.855 0 7-3.145 7-7 0-47.345 0-86.271 0-133.616 0-3.856-3.145-7-7-7zm-130.245 50.751c-3.855 0-7 3.144-7 7v82.865c0 3.855 3.145 7 7 7h36.491c3.855 0 7-3.144 7-7v-82.865c0-3.855-3.144-7-7-7zm78.393-285.631v73.022h73.022c-.001-40.329-32.694-73.022-73.022-73.022zm46.687 99.356h-73.022v-73.022c-40.329 0-73.022 32.693-73.022 73.022s32.693 73.022 73.022 73.022 73.022-32.693 73.022-73.022z" fill-rule="evenodd"/></svg>