<svg id="Layer_1" height="512" viewBox="0 0 256 256" width="512" xmlns="http://www.w3.org/2000/svg"><g><path d="m113.583 91.342h-2.575c-4.81 0-8.724 3.913-8.724 8.723v39.773c0 4.811 3.914 8.724 8.724 8.724h2.575c4.81 0 8.723-3.913 8.723-8.724v-39.773c0-4.81-3.913-8.723-8.723-8.723zm2.723 48.497c0 1.502-1.222 2.724-2.723 2.724h-2.575c-1.502 0-2.724-1.222-2.724-2.724v-39.773c0-1.501 1.222-2.723 2.724-2.723h2.575c1.501 0 2.723 1.222 2.723 2.723z"/><path d="m144.993 104.219h-2.574c-4.811 0-8.725 3.913-8.725 8.723v26.897c0 4.811 3.914 8.724 8.725 8.724h2.574c4.811 0 8.724-3.913 8.724-8.724v-26.897c0-4.81-3.913-8.723-8.724-8.723zm2.724 35.62c0 1.502-1.222 2.724-2.724 2.724h-2.574c-1.502 0-2.725-1.222-2.725-2.724v-26.897c0-1.501 1.223-2.723 2.725-2.723h2.574c1.502 0 2.724 1.221 2.724 2.723z"/><path d="m173.828 72.456c-4.81 0-8.723 3.913-8.723 8.723v58.66c0 4.811 3.913 8.724 8.723 8.724h2.575c4.811 0 8.724-3.913 8.724-8.724v-58.66c0-4.81-3.913-8.723-8.724-8.723zm5.299 8.723v58.66c0 1.502-1.222 2.724-2.724 2.724h-2.575c-1.501 0-2.723-1.222-2.723-2.724v-58.66c0-1.501 1.222-2.723 2.723-2.723h2.575c1.502 0 2.724 1.222 2.724 2.723z"/><path d="m79.596 148.563h2.575c4.81 0 8.724-3.913 8.724-8.724v-9.442c0-4.81-3.914-8.723-8.724-8.723h-2.575c-4.81 0-8.723 3.913-8.723 8.723v9.442c0 4.81 3.913 8.724 8.723 8.724zm-2.723-18.167c0-1.501 1.222-2.723 2.723-2.723h2.575c1.502 0 2.724 1.222 2.724 2.723v9.442c0 1.502-1.222 2.724-2.724 2.724h-2.575c-1.501 0-2.723-1.222-2.723-2.724z"/><path d="m80.884 116.775c3.094 0 5.611-2.517 5.611-5.609 0-.547-.083-1.075-.229-1.575l26.552-30.185 29.228 19.438c1.304.869 3.058.585 4.022-.648l28.484-36.365c.186.019.374.029.564.029 3.094 0 5.61-2.517 5.61-5.61s-2.517-5.61-5.61-5.61-5.61 2.517-5.61 5.61c0 .658.12 1.287.329 1.874l-26.779 34.188-29.099-19.353c-1.249-.832-2.922-.611-3.914.517l-28.283 32.153c-.287-.045-.578-.076-.876-.076-3.093 0-5.609 2.518-5.609 5.612-.001 3.093 2.516 5.61 5.609 5.61z"/><path d="m254.128 47.263c0-13.909-11.316-25.226-25.226-25.226h-201.805c-13.909 0-25.225 11.316-25.225 25.226v126.163c0 .251.012.5.019.749-.004.063-.019.124-.019.188 0 .108.021.21.032.315.655 13.33 11.705 23.974 25.193 23.974h87.235v14.002h-12.113c-9.007 0-16.335 7.327-16.335 16.334v1.084c0 2.303.804 3.891 3.033 3.891h.002.001 78.162.001.003c2.306 0 2.996-2.088 2.996-3 0-.003-.001-.005-.001-.008.02-.293.037-1.967.037-1.967 0-9.007-7.328-16.334-16.335-16.334h-12.113v-14.002h87.233c13.489 0 24.538-10.643 25.193-23.974.012-.104.032-.207.032-.315 0-.064-.015-.125-.019-.188.007-.249.019-.498.019-.749zm-90.063 180.7h-72.13c.517-5.219 4.93-9.309 10.283-9.309h15.113c1.657 0 3-1.343 3-3v-16.953h15.337v16.953c0 1.657 1.343 3 3 3h15.113c5.354 0 9.768 4.09 10.284 9.309zm-136.968-199.925h201.805c10.601 0 19.226 8.625 19.226 19.226v124.1h-240.256v-124.1c0-10.602 8.625-19.226 19.225-19.226zm201.805 164.614h-201.805c-9.251 0-16.994-6.57-18.816-15.289h239.438c-1.823 8.719-9.566 15.289-18.817 15.289z"/><path d="m20.874 50.82h16.945c1.657 0 3-1.343 3-3s-1.343-3-3-3h-16.945c-1.657 0-3 1.343-3 3s1.343 3 3 3z"/><path d="m45.903 50.82h3.42c1.657 0 3-1.343 3-3s-1.343-3-3-3h-3.42c-1.657 0-3 1.343-3 3s1.344 3 3 3z"/><path d="m20.874 61.085h16.945c1.657 0 3-1.343 3-3s-1.343-3-3-3h-16.945c-1.657 0-3 1.343-3 3s1.343 3 3 3z"/><path d="m45.903 61.085h3.42c1.657 0 3-1.343 3-3s-1.343-3-3-3h-3.42c-1.657 0-3 1.343-3 3s1.344 3 3 3z"/><path d="m20.874 71.349h16.945c1.657 0 3-1.343 3-3s-1.343-3-3-3h-16.945c-1.657 0-3 1.343-3 3s1.343 3 3 3z"/><path d="m45.903 71.349h3.42c1.657 0 3-1.343 3-3s-1.343-3-3-3h-3.42c-1.657 0-3 1.343-3 3s1.344 3 3 3z"/></g></svg>