<svg id="Layer_1" enable-background="new 0 0 512 512" viewBox="0 0 512 512" xmlns="http://www.w3.org/2000/svg"><path clip-rule="evenodd" d="m407.351 51.783c10.349 0 18.789 8.44 18.789 18.789v345.718c0 10.349-8.44 18.789-18.789 18.789h-197.903l-.221-14.69c-.018-1.172-.12-2.323-.301-3.447h191.076c4.418 0 8-3.582 8-8v-331.022c0-4.418-3.582-8-8-8h-48.989v-18.137zm-146.549 236.69c0-48.309-39.162-87.471-87.471-87.471s-87.471 39.162-87.471 87.471c0 44.549 33.304 81.32 76.373 86.773l.191 37.892-2.166.032c-4.373.066-7.897 3.698-7.832 8.071l1.007 66.925c.066 4.373 3.697 7.897 8.07 7.832l24.902-.375c4.373-.066 7.896-3.698 7.831-8.071l-1.006-66.926c-.065-4.373-3.698-7.898-8.07-7.832l-.667.01-.189-37.545c43.128-5.395 76.498-42.193 76.498-86.786zm-87.471 66.418c-36.681 0-66.417-29.737-66.417-66.418s29.736-66.418 66.417-66.418c36.682 0 66.418 29.737 66.418 66.418s-29.736 66.418-66.418 66.418zm151.683-314.465h-31.289c-3.379-14.014-15.997-24.426-31.049-24.426-15.051 0-27.669 10.412-31.049 24.426h-31.288c-5.508 0-10 4.492-10 10v28.852c0 5.508 4.492 10 10 10h124.675c5.507 0 10-4.492 10-10v-28.853c0-5.507-4.493-9.999-10-9.999zm-62.338 10.208c-4.666 0-8.449-3.783-8.449-8.449s3.783-8.449 8.449-8.449c4.667 0 8.449 3.782 8.449 8.449s-3.782 8.449-8.449 8.449zm-126.044 384.443h-18.631c-10.348 0-18.789-8.44-18.789-18.789v-55.621c5.446 5.599 11.526 10.592 18.138 14.855v33.417c0 4.418 3.582 8 8 8h11.44c-.261 1.473-.387 2.992-.363 4.543zm-37.419-218.789v-145.717c0-10.348 8.44-18.789 18.789-18.789h56.338v18.138h-48.989c-4.418 0-8 3.582-8 8v123.524c-6.6 4.256-12.682 9.243-18.138 14.844zm73.863-62.347 10.371 10.371c3.383 3.383 8.938 3.051 11.911-.67l14.763-18.251c2.779-3.434 2.247-8.471-1.187-11.25-3.434-2.778-8.471-2.247-11.25 1.187l-9.21 11.385-4.086-4.086c-3.124-3.124-8.189-3.124-11.312 0-3.124 3.126-3.124 8.191 0 11.314zm177.076-68.021c-2.942 11.13-13.095 19.357-25.138 19.357h-124.675c-12.043 0-22.196-8.227-25.139-19.357h-41.85v107.094c12.3-5.159 25.807-8.012 39.98-8.012 31.696 0 60.06 14.261 79.042 36.71 1.455-2 3.812-3.301 6.475-3.301h105.021c4.418 0 8 3.582 8 8s-3.582 8-8 8h-102.304c3.485 5.674 6.436 11.71 8.788 18.039h93.515c4.418 0 8 3.582 8 8s-3.582 8-8 8h-89.009c1.272 6.479 1.944 13.172 1.944 20.023 0 8.201-.964 16.203-2.787 23.891h89.853c4.401 0 7.969 3.568 7.969 7.969s-3.568 7.969-7.969 7.969h-95.031c-2.657 6.361-5.934 12.411-9.757 18.07h104.788c4.418 0 8 3.582 8 8s-3.582 8-8 8h-105.021c-3.632 0-6.698-2.421-7.675-5.737-13.187 15.071-30.716 26.33-50.804 31.741l.063 12.564h191.571v-315.02zm-129.004 87.244c0 3.397-2.779 6.176-6.176 6.176h-47.311c-3.397 0-6.176-2.779-6.176-6.176v-47.311c0-3.397 2.779-6.176 6.176-6.176h47.311c3.396 0 6.176 2.779 6.176 6.176zm142.72 1.364h-105.021c-4.418 0-8-3.582-8-8s3.582-8 8-8h105.021c4.418 0 8 3.582 8 8s-3.582 8-8 8zm0-34.039h-105.021c-4.418 0-8-3.582-8-8s3.582-8 8-8h105.021c4.418 0 8 3.582 8 8s-3.582 8-8 8zm-230.517 243.452c4.179 1.749 8.499 3.239 12.948 4.437l.063 12.561h-13.011z" fill-rule="evenodd"/></svg>