<svg clip-rule="evenodd" fill-rule="evenodd" stroke-linejoin="round" stroke-miterlimit="2" viewBox="0 0 510 510" xmlns="http://www.w3.org/2000/svg"><path d="m22.002 105.499v374.41h352.305v-165.935c0-3.863 3.136-7 7-7 3.863 0 7 3.137 7 7v172.935c0 3.866-3.134 7-7 7h-366.305c-3.866 0-7-3.134-7-7v-388.41c0-1.857.738-3.637 2.051-4.95l75.436-75.409c1.313-1.312 3.093-2.049 4.949-2.049h290.869c3.866 0 7 3.134 7 7v135.96c0 3.863-3.137 7-7 7-3.864 0-7-3.137-7-7v-128.96h-276.869v68.408c0 3.866-3.134 7-7 7zm61.436-65.513-51.532 51.513h51.532zm15.834 344.736c25.504 3.851 45.052 25.868 45.052 52.446 0 7.459-4.714 13.945-13.358 18.42-9.628 4.985-24.638 7.649-39.681 7.649-15.044 0-30.054-2.664-39.682-7.649-8.644-4.475-13.358-10.961-13.358-18.42 0-26.577 19.553-48.593 45.056-52.446-11.733-3.445-20.296-14.29-20.296-27.14 0-15.615 12.659-28.275 28.283-28.275 15.616 0 28.276 12.66 28.276 28.275 0 12.85-8.564 23.694-20.292 27.14zm31.052 52.446c0-21.56-17.476-39.043-39.036-39.043s-39.043 17.482-39.043 39.043c0 2.731 2.629 4.349 5.795 5.988 8.051 4.169 20.664 6.081 33.245 6.081 12.58 0 25.193-1.912 33.244-6.081 3.166-1.639 5.795-3.257 5.795-5.988zm-53.319-79.586c0 7.89 6.393 14.283 14.283 14.283 7.885 0 14.276-6.393 14.276-14.283 0-7.884-6.392-14.275-14.276-14.275-7.889 0-14.283 6.391-14.283 14.275zm129.137 27.14c25.504 3.851 45.052 25.868 45.052 52.446 0 7.459-4.714 13.945-13.358 18.42-9.628 4.985-24.638 7.649-39.682 7.649-15.043 0-30.054-2.664-39.681-7.649-8.644-4.475-13.358-10.961-13.358-18.42 0-26.577 19.553-48.593 45.056-52.446-11.733-3.445-20.296-14.29-20.296-27.14 0-15.615 12.659-28.275 28.283-28.275 15.616 0 28.276 12.66 28.276 28.275 0 12.85-8.564 23.694-20.292 27.14zm31.052 52.446c0-21.56-17.476-39.043-39.036-39.043-21.561 0-39.043 17.482-39.043 39.043 0 2.731 2.629 4.349 5.795 5.988 8.051 4.169 20.664 6.081 33.244 6.081 12.581 0 25.194-1.912 33.245-6.081 3.166-1.639 5.795-3.257 5.795-5.988zm-53.319-79.586c0 7.89 6.393 14.283 14.283 14.283 7.884 0 14.276-6.393 14.276-14.283 0-7.884-6.392-14.275-14.276-14.275-7.889 0-14.283 6.391-14.283 14.275zm129.137 27.14c25.504 3.851 45.052 25.868 45.052 52.446 0 7.459-4.714 13.945-13.358 18.42-9.628 4.985-24.638 7.649-39.682 7.649-15.043 0-30.054-2.664-39.681-7.649-8.644-4.475-13.358-10.961-13.358-18.42 0-26.577 19.553-48.593 45.056-52.446-11.733-3.445-20.296-14.29-20.296-27.14 0-15.615 12.658-28.275 28.283-28.275 15.615 0 28.275 12.66 28.275 28.275 0 12.85-8.563 23.694-20.291 27.14zm31.052 52.446c0-21.56-17.476-39.043-39.036-39.043-21.561 0-39.043 17.482-39.043 39.043 0 2.731 2.629 4.349 5.794 5.988 8.052 4.169 20.665 6.081 33.245 6.081 12.581 0 25.193-1.912 33.245-6.081 3.166-1.639 5.795-3.257 5.795-5.988zm-53.319-79.586c0 7.89 6.393 14.283 14.283 14.283 7.884 0 14.275-6.393 14.275-14.283 0-7.884-6.391-14.275-14.275-14.275-7.89 0-14.283 6.391-14.283 14.275zm207.09-244.917-.003.006-94.278 163.302c-.481.833-1.129 1.558-1.903 2.13l-46.428 34.294c-2.207 1.63-5.161 1.821-7.559.489-2.397-1.332-3.796-3.942-3.578-6.676l4.656-58.398c.083-1.037.396-2.043.916-2.944l94.309-163.335c8.553-14.809 27.674-19.934 42.484-11.383 14.842 8.554 19.969 27.671 11.384 42.515zm-54.908-1.333-77.441 134.123 29.645 17.107 77.436-134.129zm36.639 4.976 6.145-10.643.003-.005c4.723-8.163 1.907-18.678-6.256-23.381l-.006-.004c-8.143-4.704-18.658-1.884-23.362 6.259l-6.163 10.674zm-117.713 143.214-2.59 32.486 25.827-19.077zm-224.529-155.326c29.273 0 53.039 23.766 53.039 53.04 0 29.273-23.766 53.039-53.039 53.039s-53.039-23.766-53.039-53.039c0-29.274 23.766-53.04 53.039-53.04zm0 14c-21.547 0-39.039 17.493-39.039 39.04 0 21.546 17.492 39.039 39.039 39.039 21.546 0 39.039-17.493 39.039-39.039 0-21.547-17.493-39.04-39.039-39.04zm-26.627 41.51c-2.569-2.886-2.311-7.314.574-9.883 2.886-2.569 7.314-2.312 9.883.574l9.483 10.652 23.593-19.743c2.963-2.48 7.381-2.087 9.86.875 2.48 2.963 2.087 7.382-.875 9.861l-28.8 24.101c-2.901 2.428-7.206 2.112-9.721-.714zm148.288-55.51c29.273 0 53.039 23.766 53.039 53.04 0 29.273-23.766 53.039-53.039 53.039s-53.04-23.766-53.04-53.039c0-29.274 23.767-53.04 53.04-53.04zm0 14c-21.547 0-39.04 17.493-39.04 39.04 0 21.546 17.493 39.039 39.04 39.039 21.546 0 39.039-17.493 39.039-39.039 0-21.547-17.493-39.04-39.039-39.04zm0 29.14 9.31-9.31c2.732-2.732 7.167-2.732 9.899 0s2.732 7.168 0 9.9l-9.31 9.31 9.31 9.309c2.732 2.732 2.732 7.168 0 9.9s-7.167 2.732-9.899 0l-9.31-9.31-9.31 9.31c-2.732 2.732-7.168 2.732-9.9 0-2.731-2.732-2.731-7.168 0-9.9l9.31-9.309-9.31-9.31c-2.731-2.732-2.731-7.168 0-9.9 2.732-2.732 7.168-2.732 9.9 0zm-167.7 97.576c-3.864 0-7-3.137-7-7s3.136-7 7-7h213.739c3.864 0 7 3.137 7 7s-3.136 7-7 7zm0 31.879c-3.864 0-7-3.137-7-7 0-3.864 3.136-7 7-7h213.739c3.864 0 7 3.136 7 7 0 3.863-3.136 7-7 7zm0 31.879c-3.864 0-7-3.137-7-7 0-3.864 3.136-7 7-7h213.739c3.864 0 7 3.136 7 7 0 3.863-3.136 7-7 7z"/></svg>