<svg id="Layer_1" viewBox="0 0 512 512" xmlns="http://www.w3.org/2000/svg" data-name="Layer 1"><path d="m334.164 17.917c7.023 7.023 71.909 71.664 72.818 72.953.748 1.061 1.158 2.345 1.158 3.667v23.555l8.603-29.078c2.53-8.532 11.568-13.568 19.8-11.019l23.493 6.95c8.52 2.521 13.121 11.605 10.632 20.021l-62.528 211.338v155.056c0 13.578-11.06 24.639-24.639 24.639h-318.203c-13.578 0-24.639-11.06-24.639-24.639v-430.72c0-13.578 11.06-24.639 24.639-24.639h264.306c1.73.011 3.35.677 4.56 1.915z" fill-rule="evenodd"/><g><g fill-rule="evenodd"><path d="m161.821 369.087c-12.89-12.89-33.793-12.89-46.683 0s-12.89 33.793 0 46.683 33.793 12.89 46.683 0 12.89-33.793 0-46.683zm-10.271 5.325c2.246-2.701 6.257-3.07 8.958-.824s3.07 6.257.824 8.958l-23.251 27.899c-2.6 3.123-7.331 2.997-9.856-.089l-12.599-15.117c-2.246-2.701-1.877-6.712.824-8.958s6.712-1.877 8.958.824l7.782 9.338 18.36-22.03z" fill="#3d7dbd"/><path d="m161.821 232.658c-12.89-12.89-33.793-12.89-46.683 0s-12.89 33.793 0 46.683 33.793 12.89 46.683 0 12.89-33.793 0-46.683zm-10.271 5.325c2.246-2.701 6.257-3.07 8.958-.824s3.07 6.257.824 8.958l-23.251 27.899c-2.6 3.123-7.331 2.997-9.856-.089l-12.599-15.117c-2.246-2.701-1.877-6.712.824-8.958s6.712-1.877 8.958.824l7.782 9.338 18.36-22.03z" fill="#3d7dbd"/><path d="m161.821 96.23c-12.89-12.89-33.793-12.89-46.683 0s-12.89 33.793 0 46.683 33.793 12.89 46.683 0 12.89-33.793 0-46.683zm-10.271 5.325c2.246-2.701 6.257-3.07 8.958-.824s3.07 6.257.824 8.958l-23.251 27.899c-2.6 3.123-7.331 2.997-9.856-.089l-12.599-15.117c-2.246-2.701-1.877-6.712.824-8.958s6.712-1.877 8.958.824l7.782 9.338 18.36-22.03z" fill="#3d7dbd"/><path d="m204.246 421.395c-3.528 0-6.388-2.86-6.388-6.388s2.86-6.388 6.388-6.388h138.875l-1.964-62.7c-.059-.752.015-1.527.24-2.293l53.952-182.352v-60.349h-50.471c-11.935 0-21.677-9.741-21.677-21.676v-50.471h-257.916c-6.526 0-11.863 5.337-11.863 11.863v430.719c0 6.525 5.337 11.863 11.863 11.863h318.203c6.525 0 11.863-5.337 11.863-11.863v-111.875l-1.042 2.107-39.082 56.605c-1.104 1.912-3.17 3.198-5.535 3.198h-145.445zm-65.767-74.751c25.285 0 45.785 20.5 45.785 45.785s-20.5 45.785-45.785 45.785-45.785-20.501-45.785-45.785 20.501-45.785 45.785-45.785zm0-136.429c25.285 0 45.785 20.5 45.785 45.785s-20.5 45.785-45.785 45.785-45.785-20.501-45.785-45.785 20.5-45.785 45.785-45.785zm0-136.428c25.285 0 45.785 20.5 45.785 45.785s-20.5 45.785-45.785 45.785-45.785-20.501-45.785-45.785 20.501-45.785 45.785-45.785zm65.767 29.595c-3.528 0-6.388-2.86-6.388-6.388s2.86-6.388 6.388-6.388h95.101c3.528 0 6.388 2.86 6.388 6.388s-2.86 6.388-6.388 6.388zm0 45.157c-3.528 0-6.388-2.86-6.388-6.388s2.86-6.388 6.388-6.388h145.445c3.528 0 6.388 2.86 6.388 6.388s-2.86 6.388-6.388 6.388zm0 91.272c-3.528 0-6.388-2.86-6.388-6.388s2.86-6.388 6.388-6.388h123.071c3.528 0 6.388 2.86 6.388 6.388s-2.86 6.388-6.388 6.388zm0 45.157c-3.528 0-6.388-2.86-6.388-6.388s2.86-6.388 6.388-6.388h29.108c3.528 0 6.388 2.86 6.388 6.388s-2.86 6.388-6.388 6.388zm55.789 0c-3.528 0-6.388-2.86-6.388-6.388s2.86-6.388 6.388-6.388h89.656c3.528 0 6.388 2.86 6.388 6.388s-2.86 6.388-6.388 6.388zm38.102 91.272c-3.528 0-6.388-2.86-6.388-6.388s2.86-6.388 6.388-6.388h16.53c3.528 0 6.388 2.86 6.388 6.388s-2.86 6.388-6.388 6.388zm-93.892 0c-3.528 0-6.388-2.86-6.388-6.388s2.86-6.388 6.388-6.388h66.525c3.528 0 6.388 2.86 6.388 6.388s-2.86 6.388-6.388 6.388z" fill="#fff"/><path d="m386.318 88.149-50.339-50.339v41.438c0 4.882 4.018 8.901 8.901 8.901z" fill="#3d7dbd"/><path d="m355.429 341.119 29.485 8.723 55.062-186.105-29.485-8.724c-18.355 62.034-36.708 124.071-55.062 186.106z" fill="#3d7dbd"/></g><path d="m426.369 128.462h6.925v30.748h-6.925z" fill="#fff" transform="matrix(.284 -.959 .959 .284 169.959 515.198)"/><path d="m419.687 123.934 29.485 8.724 9.256-31.284c.521-1.762-.348-3.713-1.998-4.202l-23.501-6.953c-1.709-.506-3.47.689-3.978 2.408l-9.263 31.307z" fill="#3d7dbd" fill-rule="evenodd"/><path d="m354.15 354.03 1.298 41.431 23.533-34.084z" fill="#3d7dbd" fill-rule="evenodd"/></g></svg>