<svg id="Layer_2" enable-background="new 0 0 512 512" viewBox="0 0 512 512" xmlns="http://www.w3.org/2000/svg"><g transform="translate(-562)"><g id="Icons_00000066500759343927504960000005058123113245746857_"><path clip-rule="evenodd" d="m817.468 78.99c-1.488-.01-2.951.706-3.864 1.88-.392.499-.688 1.077-.862 1.688-.1.355-.162.723-.18 1.091-.028.311.006 169.768-.007 170.077-.331.528-99.005 138.02-99.245 138.546-.308.569-.501 1.198-.566 1.84-.09.9.073 1.823.467 2.638.273.563.655 1.076 1.12 1.495 62.613 48.678 165.597 42.384 221.841-12.619l17.752 17.752c-27.999 36.591.291 93.052 46.827 92.037 31.975.001 57.929-25.958 57.929-57.933.706-50.666-63.023-77.045-98.298-41.54l-17.135-17.133c108.937-107.12 28.835-301.978-125.779-299.819zm146.692 327.269c-26.642 29.683-3.763 80.242 36.592 79.334 26.552.001 48.105-21.556 48.105-48.109.544-44.306-56.883-64.922-84.697-31.225zm60.207 39.514c-7.534 22.106-39.712 22.088-47.241-.001-2.142-6.043-11.378-2.815-9.269 3.258 10.499 30.769 55.285 30.763 65.783-.001 2.078-6.071-7.094-9.307-9.273-3.256zm-.226-36.281c-17.18.441-17.175 25.603 0 26.042 17.165-.444 17.162-25.6 0-26.042zm-46.785 0c-17.172.442-17.167 25.602 0 26.042 17.172-.442 17.17-25.602 0-26.042zm46.785 9.824c4.174.021 4.173 6.373 0 6.394-4.188-.02-4.188-6.375 0-6.394zm-46.785 0c4.182.02 4.18 6.374 0 6.394-4.179-.02-4.18-6.374 0-6.394zm-154.977-330.431v166.419c0 1.027-.321 2.028-.919 2.862l-96.935 135.257c59.096 42.678 152.885 35.523 204.696-14.748l-28.744-28.743c-15.202 10.61-37.935-1.425-37.372-20.183 0-13.32 10.814-24.135 24.136-24.135 18.755-.561 30.799 22.171 20.182 37.372l28.881 28.881c101.297-99.549 29.351-280.989-113.925-282.982zm-159.738 36.685 18.766 18.766c-25.135 26.627-40.55 62.522-40.55 101.99 0 49.745 24.487 93.815 62.057 120.801 2.116 1.574 5.361 1.055 6.858-1.128 0 0 83.716-116.812 83.716-116.812.598-.834.92-1.835.92-2.862v-143.727c0-2.713-2.199-4.912-4.912-4.912-39.04 0-74.586 15.084-101.113 39.73l-17.349-17.349c42.792-32.542 18.764-104.115-35.784-103.484-31.972-.001-57.931 25.959-57.931 57.933-1.136 42.834 48.432 72.051 85.322 51.054zm25.715 25.714c-55.928 55.369-47.163 159.486 16.347 204.926l79.881-111.462v-137.152c-34.391 1.198-65.618 14.932-89.251 36.771l28.119 28.12c15.202-10.612 37.936 1.424 37.373 20.182.001 13.321-10.815 24.136-24.136 24.136-18.755.561-30.798-22.171-20.183-37.372zm209.06 188.526c8.899-8.55 2.33-24.657-10.176-24.374-7.9 0-14.313 6.413-14.313 14.312-.279 12.583 15.984 19.112 24.489 10.062zm-170.903-157.202c-8.9 8.55-2.329 24.657 10.176 24.374 7.899 0 14.313-6.414 14.313-14.313.279-12.581-15.986-19.113-24.489-10.061zm-65.611-67.393c40.216-24.616 22.239-89.223-25.652-88.808-26.55 0-48.107 21.557-48.107 48.109-.766 37.194 42.989 61.054 73.759 40.699zm7.241-12.386c-10.497-30.769-55.292-30.761-65.782.001-.899 2.557.448 5.363 3.006 6.262 2.557.899 5.364-.448 6.263-3.005 3.424-9.745 12.713-16.74 23.622-16.74 10.91 0 20.199 6.994 23.623 16.74 2.142 6.042 11.378 2.815 9.268-3.258zm-9.499-56.304c-17.173.442-17.169 25.602 0 26.042 17.17-.442 17.168-25.602 0-26.042zm-46.784 0c-17.173.443-17.168 25.602 0 26.042 17.172-.443 17.17-25.602 0-26.042zm46.784 9.824c4.181.02 4.179 6.375 0 6.394-4.181-.02-4.182-6.375 0-6.394zm-46.784 0c4.182.02 4.18 6.375 0 6.394-4.18-.02-4.181-6.375 0-6.394z" fill-rule="evenodd"/></g></g></svg>