<svg enable-background="new 0 0 24 24" viewBox="0 0 24 24" xmlns="http://www.w3.org/2000/svg" xmlns:xlink="http://www.w3.org/1999/xlink"><symbol id="material_x5F_system_x5F_icon_x5F_grid" viewBox="-.0002 -47.9998 48 48"><g><g clip-path="url(#SVGID_2_)"><g><path d="m2-48v48" fill="none" stroke="#000" stroke-miterlimit="10" stroke-width=".25"/><path d="m4-48v48" fill="none" stroke="#000" stroke-miterlimit="10" stroke-width=".25"/><path d="m6-48v48" fill="none" stroke="#000" stroke-miterlimit="10" stroke-width=".25"/><path d="m8-48v48" fill="none" stroke="#000" stroke-miterlimit="10" stroke-width=".25"/><path d="m10-48v48" fill="none" stroke="#000" stroke-miterlimit="10" stroke-width=".25"/><path d="m12-48v48" fill="none" stroke="#000" stroke-miterlimit="10" stroke-width=".25"/><path d="m14-48v48" fill="none" stroke="#000" stroke-miterlimit="10" stroke-width=".25"/><path d="m16-48v48" fill="none" stroke="#000" stroke-miterlimit="10" stroke-width=".25"/><path d="m18-48v48" fill="none" stroke="#000" stroke-miterlimit="10" stroke-width=".25"/><path d="m20-48v48" fill="none" stroke="#000" stroke-miterlimit="10" stroke-width=".25"/><path d="m22-48v48" fill="none" stroke="#000" stroke-miterlimit="10" stroke-width=".25"/><path d="m24-48v48" fill="none" stroke="#000" stroke-miterlimit="10" stroke-width=".25"/><path d="m26-48v48" fill="none" stroke="#000" stroke-miterlimit="10" stroke-width=".25"/><path d="m28-48v48" fill="none" stroke="#000" stroke-miterlimit="10" stroke-width=".25"/><path d="m30-48v48" fill="none" stroke="#000" stroke-miterlimit="10" stroke-width=".25"/><path d="m32-48v48" fill="none" stroke="#000" stroke-miterlimit="10" stroke-width=".25"/><path d="m34-48v48" fill="none" stroke="#000" stroke-miterlimit="10" stroke-width=".25"/><path d="m36-48v48" fill="none" stroke="#000" stroke-miterlimit="10" stroke-width=".25"/><path d="m38-48v48" fill="none" stroke="#000" stroke-miterlimit="10" stroke-width=".25"/><path d="m40-48v48" fill="none" stroke="#000" stroke-miterlimit="10" stroke-width=".25"/><path d="m42-48v48" fill="none" stroke="#000" stroke-miterlimit="10" stroke-width=".25"/><path d="m44-48v48" fill="none" stroke="#000" stroke-miterlimit="10" stroke-width=".25"/><path d="m46-48v48" fill="none" stroke="#000" stroke-miterlimit="10" stroke-width=".25"/></g><g><path d="m0-2h48" fill="none" stroke="#000" stroke-miterlimit="10" stroke-width=".25"/><path d="m0-4h48" fill="none" stroke="#000" stroke-miterlimit="10" stroke-width=".25"/><path d="m0-6h48" fill="none" stroke="#000" stroke-miterlimit="10" stroke-width=".25"/><path d="m0-8h48" fill="none" stroke="#000" stroke-miterlimit="10" stroke-width=".25"/><path d="m0-10h48" fill="none" stroke="#000" stroke-miterlimit="10" stroke-width=".25"/><path d="m0-12h48" fill="none" stroke="#000" stroke-miterlimit="10" stroke-width=".25"/><path d="m0-14h48" fill="none" stroke="#000" stroke-miterlimit="10" stroke-width=".25"/><path d="m0-16h48" fill="none" stroke="#000" stroke-miterlimit="10" stroke-width=".25"/><path d="m0-18h48" fill="none" stroke="#000" stroke-miterlimit="10" stroke-width=".25"/><path d="m0-20h48" fill="none" stroke="#000" stroke-miterlimit="10" stroke-width=".25"/><path d="m0-22h48" fill="none" stroke="#000" stroke-miterlimit="10" stroke-width=".25"/><path d="m0-24h48" fill="none" stroke="#000" stroke-miterlimit="10" stroke-width=".25"/><path d="m0-26h48" fill="none" stroke="#000" stroke-miterlimit="10" stroke-width=".25"/><path d="m0-28h48" fill="none" stroke="#000" stroke-miterlimit="10" stroke-width=".25"/><path d="m0-30h48" fill="none" stroke="#000" stroke-miterlimit="10" stroke-width=".25"/><path d="m0-32h48" fill="none" stroke="#000" stroke-miterlimit="10" stroke-width=".25"/><path d="m0-34h48" fill="none" stroke="#000" stroke-miterlimit="10" stroke-width=".25"/><path d="m0-36h48" fill="none" stroke="#000" stroke-miterlimit="10" stroke-width=".25"/><path d="m0-38h48" fill="none" stroke="#000" stroke-miterlimit="10" stroke-width=".25"/><path d="m0-40h48" fill="none" stroke="#000" stroke-miterlimit="10" stroke-width=".25"/><path d="m0-42h48" fill="none" stroke="#000" stroke-miterlimit="10" stroke-width=".25"/><path d="m0-44h48" fill="none" stroke="#000" stroke-miterlimit="10" stroke-width=".25"/><path d="m0-46h48" fill="none" stroke="#000" stroke-miterlimit="10" stroke-width=".25"/></g><g><path d="m47.7498-.2498v-47.5h-47.5v47.5h47.5m.25.25h-48v-48h48z"/></g></g></g></symbol><clipPath id="SVGID_2_"><path id="SVGID_1_" d="m0-48h48v48h-48z"/></clipPath><symbol id="material_x5F_system_x5F_icon_x5F_keylines" viewBox="-.0002 -48.0001 48 48"><g opacity=".4"><path clip-path="url(#SVGID_4_)" d="m24 0v-48" fill="none" stroke="#000" stroke-miterlimit="10" stroke-width=".25"/><path clip-path="url(#SVGID_4_)" d="m48-24h-48" fill="none" stroke="#000" stroke-miterlimit="10" stroke-width=".25"/><path clip-path="url(#SVGID_4_)" d="m48-16h-48" fill="none" stroke="#000" stroke-miterlimit="10" stroke-width=".25"/><path clip-path="url(#SVGID_4_)" d="m48-32h-48" fill="none" stroke="#000" stroke-miterlimit="10" stroke-width=".25"/><path clip-path="url(#SVGID_4_)" d="m32-48v48" fill="none" stroke="#000" stroke-miterlimit="10" stroke-width=".25"/><path clip-path="url(#SVGID_4_)" d="m16-48v48" fill="none" stroke="#000" stroke-miterlimit="10" stroke-width=".25"/><path clip-path="url(#SVGID_4_)" d="m47.75-.25-47.5-47.5" fill="none" stroke="#000" stroke-miterlimit="10" stroke-width=".25"/><path clip-path="url(#SVGID_4_)" d="m.25-.25 47.5-47.5" fill="none" stroke="#000" stroke-miterlimit="10" stroke-width=".25"/><path clip-path="url(#SVGID_4_)" d="m24.0005-13.9999c-5.5225 0-10.0001-4.477-10.0001-9.9999 0-5.5225 4.4775-10.0001 10.0001-10.0001 5.5224 0 9.9999 4.4775 9.9999 10.0001 0 5.523-4.4775 9.9999-9.9999 9.9999z" fill="none" stroke="#000" stroke-miterlimit="10" stroke-width=".25"/><path clip-path="url(#SVGID_4_)" d="m23.9998-4.0001c-11.0536 0-20-8.9474-20-20 0-11.0527 8.9464-20 20-20 11.0527 0 20 8.9473 20 20 0 11.0526-8.9474 20-20 20z" fill="none" stroke="#000" stroke-miterlimit="10" stroke-width=".25"/><path clip-path="url(#SVGID_4_)" d="m37.9998-6.0001h-28c-2.211 0-4-1.791-4-4v-28c0-2.209 1.789-4 4-4h28c2.2109 0 4 1.791 4 4v28c0 2.2089-1.7891 4-4 4z" fill="none" stroke="#000" stroke-miterlimit="10" stroke-width=".25"/><path clip-path="url(#SVGID_4_)" d="m39.9998-8.0001h-32c-2.209 0-4-1.791-4-4v-24c0-2.209 1.791-4 4-4h32c2.209 0 4.0001 1.7913 4.0001 4.0003l-.0001 23.9997c0 2.2089-1.7911 4-4 4z" fill="none" stroke="#000" stroke-miterlimit="10" stroke-width=".25"/><path clip-path="url(#SVGID_4_)" d="m39.9998-40.0001v32c0 2.209-1.791 4-4 4h-24c-2.209 0-4-1.791-4-4v-32c0-2.209 1.791-4 4-4h24c2.2089 0 4 1.791 4 4z" fill="none" stroke="#000" stroke-miterlimit="10" stroke-width=".25"/><g clip-path="url(#SVGID_4_)"><path d="m47.7498-.2501v-47.5h-47.5v47.5h47.5m.25.25h-48v-48h48z"/></g></g></symbol><clipPath id="SVGID_4_"><path id="SVGID_3_" d="m0-48h48v48h-48z"/></clipPath><g id="border" display="none"/><g id="grid" display="none"><use id="XMLID_40_" display="inline" height="48" opacity=".15" transform="scale(.5 -.5)" width="48" xlink:href="#material_x5F_system_x5F_icon_x5F_grid" y="-48"/></g><g id="keylines" display="none"><use id="XMLID_31_" display="inline" height="48" opacity=".6" transform="scale(.5 -.5)" width="48" xlink:href="#material_x5F_system_x5F_icon_x5F_keylines" y="-48"/></g><g id="Twotone" display="none"><g display="inline"><path d="m12.3941 17.8233c-.1192.0796-.2565.1193-.3938.1193s-.2747-.0398-.3939-.1193l-4.778-3.1851-2.1288 1.4192 7.3007 4.8668 7.3001-4.8668-2.1287-1.4192z" fill="#023e8a"/><path d="m19.3004 7.9427-7.3001-4.867-7.3007 4.867 7.3007 4.8669z" fill="#023e8a"/><path d="m12.3941 13.7661c-.1192.0795-.2565.1193-.3938.1193s-.2747-.0398-.3939-.1193l-4.7781-3.1852-2.1287 1.4191 7.3007 4.8668 7.3001-4.8668-2.1285-1.4191z" fill="#fff"/><g><path d="m20.2429 11.4092-2.1567-1.4379 2.1567-1.4378c.4216-.281.4216-.9005 0-1.1816l-7.8487-5.2326c-.1193-.0796-.2566-.1193-.3939-.1193s-.2747.0397-.3939.1193l-7.8493 5.2326c-.4216.2811-.4216.9006 0 1.1816l2.1569 1.4378-2.1569 1.4379c-.4216.2811-.4216.9005 0 1.1816l2.157 1.4379-2.157 1.4379c-.4216.2811-.4216.9006 0 1.1816l7.8493 5.2325c.1192.0796.2566.1193.3939.1193s.2746-.0397.3938-.1193l7.8488-5.2325c.4216-.2811.4216-.9006 0-1.1816l-2.1569-1.438 2.1569-1.4379c.4216-.281.4216-.9005 0-1.1815zm-15.5433-3.4665 7.3007-4.867 7.3001 4.867-7.3001 4.8668zm14.6008 8.1147-7.3001 4.8668-7.3007-4.8668 2.1288-1.4192 4.778 3.1851c.1192.0795.2565.1193.3939.1193s.2746-.0397.3938-.1193l4.7776-3.1851zm-7.3001.8094-7.3007-4.8668 2.1287-1.4191 4.7781 3.1852c.1192.0795.2565.1193.3939.1193s.2746-.0398.3938-.1193l4.7778-3.1852 2.1285 1.4191z" fill="#001e30"/></g></g></g><g id="Filled" display="none"><g display="inline" fill="#001e30"><path d="m20.2426 11.4094-1.2284-.819-6.6204 4.4136c-.1193.0795-.2566.1192-.3939.1192s-.2746-.0397-.3939-.1192l-6.6208-4.4136-1.2284.8189c-.4216.2811-.4216.9006 0 1.1816l7.8493 5.2326c.1192.0795.2566.1192.3939.1192s.2746-.0397.3938-.1192l7.8487-5.2326c.4217-.281.4217-.9005.0001-1.1815z"/><path d="m20.2426 15.4668-1.2284-.819-6.6204 4.4136c-.1192.0796-.2565.1193-.3938.1193s-.2746-.0397-.3939-.1192l-6.6208-4.4136-1.2284.8189c-.4216.2811-.4216.9006 0 1.1816l7.8493 5.2326c.1192.0795.2566.1192.3939.1192s.2746-.0397.3938-.1192l7.8487-5.2326c.4216-.2811.4216-.9006 0-1.1816z"/><path d="m20.2426 7.3521-7.8487-5.2326c-.1193-.0795-.2566-.1193-.3939-.1193s-.2746.0397-.3939.1193l-7.8492 5.2326c-.4216.2811-.4216.9006 0 1.1816l7.8493 5.2325c.1192.0795.2566.1192.3939.1192s.2746-.0397.3938-.1192l7.8487-5.2326c.4216-.2809.4216-.9004 0-1.1815z"/></g></g><g id="Outline"><path d="m20.2429 11.4092-2.1567-1.4379 2.1567-1.4378c.4216-.281.4216-.9005 0-1.1816l-7.8487-5.2326c-.1193-.0796-.2566-.1193-.3939-.1193s-.2746.0397-.3939.1192l-7.8493 5.2327c-.4216.2811-.4216.9006 0 1.1816l2.1569 1.4378-2.1569 1.4378c-.4216.2811-.4216.9006 0 1.1816l2.157 1.4379-2.157 1.4379c-.4216.2811-.4216.9006 0 1.1816l7.8493 5.2325c.1193.0797.2566.1194.3939.1194s.2746-.0397.3938-.1192l7.8488-5.2325c.4216-.2811.4216-.9006 0-1.1816l-2.1569-1.438 2.1569-1.4379c.4216-.2811.4216-.9006 0-1.1816zm-8.2426-8.3334 7.3001 4.867-7.3001 4.8668-7.3007-4.8668zm7.3001 12.9816-7.3001 4.8668-7.3007-4.8668 2.1289-1.4192 4.778 3.1851c.1192.0795.2566.1193.3939.1193s.2746-.0397.3938-.1193l4.7776-3.1851zm-7.3001.8094-7.3007-4.8668 2.1287-1.4191 4.7781 3.1853c.1192.0795.2566.1192.3939.1192s.2746-.0397.3938-.1192l4.7777-3.1852 2.1286 1.419z" fill="#001e30"/></g></svg>