<svg id="Layer_1" enable-background="new 0 0 512 512" height="512" viewBox="0 0 512 512" width="512" xmlns="http://www.w3.org/2000/svg"><path clip-rule="evenodd" d="m178.057 429.6h-58.04c-17.885 0-32.517 11.691-32.517 25.981v25.981h337v-25.981c0-14.289-14.632-25.981-32.517-25.981h-58.04v-60.581h131.927c20.972 0 38.13-17.159 38.13-38.131v-262.319c0-20.972-17.159-38.131-38.13-38.131h-419.739c-20.972 0-38.131 17.159-38.131 38.131v262.32c0 20.972 17.159 38.131 38.131 38.131h131.927v60.58zm173.178-323.712h41.674v182.902h-41.674zm-77.38 76.341h41.674v106.56h-41.674c0-40.051 0-61.069 0-106.56zm-77.382-18.407h41.674v124.968h-41.674zm-35.708 124.967h-41.673v-70.287h41.673zm-120.879 16v-237.177c0-2.908 2.38-5.288 5.288-5.288h421.652c2.908 0 5.288 2.38 5.288 5.288v237.177c-144.076 0-288.152 0-432.228 0z" fill-rule="evenodd"/></svg>