<svg id="Capa_1" enable-background="new 0 0 512 512" height="512" viewBox="0 0 512 512" width="512" xmlns="http://www.w3.org/2000/svg"><path d="m497 206.733c8.284 0 15-6.716 15-15v-37.436c0-46.314-27.65-73.964-73.965-73.964h-86.702v47.133c-.738 19.881-29.269 19.866-30 0v-47.133h-247.368c-46.315 0-73.965 27.651-73.965 73.965v37.436c0 8.284 6.716 15 15 15 65.275 2.48 65.246 96.068-.001 98.533-8.284 0-14.999 6.716-14.999 15v37.436c0 46.314 27.65 73.964 73.965 73.964h247.369v-47.133c.738-19.881 29.269-19.866 30 0v47.133h86.702c46.314 0 73.965-27.65 73.965-73.964v-37.436c0-8.284-6.716-15-15-15-65.275-2.477-65.246-96.071-.001-98.534zm-145.667 113.534c-.738 19.881-29.269 19.866-30 0v-32.133c.738-19.881 29.269-19.866 30 0zm0-96.4c-.738 19.881-29.269 19.866-30 0v-32.133c.738-19.881 29.269-19.866 30 0z"/></svg>