<?xml version="1.0"?>
<svg xmlns="http://www.w3.org/2000/svg" id="Layer_3" data-name="Layer 3" viewBox="0 0 64 64" width="512" height="512"><path d="M61.672,24.741a4.535,4.535,0,0,0-6.414-6.413L53,20.586V7a6.006,6.006,0,0,0-6-6H7A6.006,6.006,0,0,0,1,7V17a3,3,0,0,0,3,3h7V55.748A7.184,7.184,0,0,0,17.785,63c.141,0,.28.005.419,0L50,63a7.009,7.009,0,0,0,7-7,1,1,0,0,0-1-1H53V33.413ZM32.784,46.2,33.8,47.216l-1.832.814Zm2.976.148L33.654,44.24l.669-1.5,2.94,2.94ZM39,44.585,35.415,41,52,24.414,55.585,28ZM46.586,27H31V25H48.586Zm6.828-4L55,21.414,58.585,25,57,26.585Zm5.051-4a2.535,2.535,0,0,1,1.793,4.327L60,23.585,56.414,20l.258-.258A2.519,2.519,0,0,1,58.465,19ZM11,18H4a1,1,0,0,1-1-1V7a4,4,0,0,1,8,0ZM50,61,22.9,61a6.927,6.927,0,0,0,2.029-4H54.9A5.008,5.008,0,0,1,50,61Zm1-6H24a1,1,0,0,0-1,1,5,5,0,0,1-4.829,5h-.34A5.171,5.171,0,0,1,13,55.748V7a5.969,5.969,0,0,0-1.54-4H47a4,4,0,0,1,4,4V22.586L50.586,23H30a1,1,0,0,0-1,1v4a1,1,0,0,0,1,1H44.586L33.293,40.293a.992.992,0,0,0-.207.3l-4,9a1,1,0,0,0,1.32,1.32l9-4a.992.992,0,0,0,.3-.207L51,35.414Z"/><path d="M16,29H26a1,1,0,0,0,1-1V21.414l4.706-4.707-1.414-1.414L27,18.585V18a1,1,0,0,0-1-1H16a1,1,0,0,0-1,1V28A1,1,0,0,0,16,29Zm1-10h8v1.586l-3,3-2.293-2.293-1.414,1.414,3,3a1,1,0,0,0,1.414,0L25,23.414V27H17Z"/><path d="M31.706,32.707l-1.414-1.414L27,34.585V34a1,1,0,0,0-1-1H16a1,1,0,0,0-1,1V44a1,1,0,0,0,1,1H26a1,1,0,0,0,1-1V37.414ZM25,43H17V35h8v1.586l-3,3-2.293-2.293-1.414,1.414,3,3a1,1,0,0,0,1.414,0L25,39.414Z"/><path d="M21,13H43a4,4,0,0,0,0-8H21a4,4,0,0,0,0,8Zm0-6H43a2,2,0,0,1,0,4H21a2,2,0,0,1,0-4Z"/><rect x="41" y="51" width="8" height="2"/></svg>
