<svg height="512pt" viewBox="0 -36 512 511" width="512pt" xmlns="http://www.w3.org/2000/svg"><path d="m430.691406 163.113281c44.835938 0 81.308594-36.472656 81.308594-81.304687 0-44.832032-36.472656-81.308594-81.308594-81.308594-44.832031 0-81.304687 36.476562-81.304687 81.308594 0 44.832031 36.472656 81.304687 81.304687 81.304687zm-15-116.808593h30.003906v71.003906h-30.003906zm0 0"/><path d="m430.691406 193.113281c-61.375 0-111.308594-49.929687-111.308594-111.304687 0-14.011719 2.609376-27.425782 7.359376-39.785156h-266.945313c-32.972656 0-59.796875 26.824218-59.796875 59.796874v192.003907c0 32.972656 26.824219 59.800781 59.796875 59.800781h16.179687v85.882812l128.285157-85.882812h167.015625c32.972656 0 59.796875-26.828125 59.796875-59.800781v-100.714844c-.125 0-.253907.003906-.382813.003906zm-118.636718 57.289063h-185.171876v-30.003906h185.171876zm0-72.683594h-185.171876v-30.003906h185.171876zm0 0"/></svg>